<?xml version="1.0" encoding="iso-8859-1"?>
<!-- Generator: Adobe Illustrator 19.0.0, SVG Export Plug-In . SVG Version: 6.00 Build 0)  -->
<svg version="1.1" id="Layer_1" xmlns="http://www.w3.org/2000/svg" xmlns:xlink="http://www.w3.org/1999/xlink" x="0px" y="0px"
	 viewBox="0 0 512 512" style="enable-background:new 0 0 512 512;" xml:space="preserve">
<g>
	<rect x="8.017" y="12.292" style="fill:#E6EAEA;" width="495.967" height="487.415"/>
	<rect x="8.017" y="12.292" style="fill:#E6EAEA;" width="247.983" height="487.415"/>
</g>
<g>
	<rect x="8.017" y="12.292" style="fill:#CDD4D5;" width="247.983" height="487.415"/>
	<rect x="8.017" y="12.292" style="fill:#CDD4D5;" width="495.967" height="102.614"/>
</g>
<rect x="8.017" y="12.292" style="fill:#687F82;" width="247.983" height="102.614"/>
<g>
	<path style="fill:#FFFFFF;" d="M427.023,54.514H332.96c-4.428,0-8.017-3.589-8.017-8.017s3.588-8.017,8.017-8.017h94.063
		c4.428,0,8.017,3.589,8.017,8.017S431.451,54.514,427.023,54.514z"/>
	<path style="fill:#FFFFFF;" d="M469.779,54.514h-17.102c-4.428,0-8.017-3.589-8.017-8.017s3.588-8.017,8.017-8.017h17.102
		c4.428,0,8.017,3.589,8.017,8.017S474.207,54.514,469.779,54.514z"/>
</g>
<circle style="fill:#4ACFD9;" cx="264.551" cy="63.599" r="25.653"/>
<circle style="fill:#FF8C29;" cx="170.489" cy="63.599" r="25.653"/>
<g>
	<circle style="fill:#F0353D;" cx="76.426" cy="63.599" r="25.653"/>
	<path style="fill:#F0353D;" d="M144.83,397.092c-3.806,0-7.625-1.347-10.686-4.084l-81.236-72.685
		c-3.34-2.989-5.277-7.239-5.341-11.72c-0.064-4.481,1.751-8.785,5.005-11.868l81.236-76.96c6.428-6.091,16.576-5.816,22.667,0.612
		c6.091,6.428,5.816,16.576-0.612,22.666l-68.594,64.983l68.258,61.073c6.599,5.905,7.163,16.041,1.258,22.64
		C153.617,395.289,149.232,397.092,144.83,397.092z"/>
	<path style="fill:#F0353D;" d="M367.17,397.092c3.806,0,7.625-1.347,10.686-4.084l81.236-72.685c3.34-2.989,5.277-7.239,5.34-11.72
		c0.064-4.481-1.751-8.785-5.005-11.868l-81.236-76.96c-6.428-6.091-16.576-5.816-22.667,0.612
		c-6.091,6.428-5.816,16.576,0.612,22.666l68.594,64.983l-68.258,61.073c-6.599,5.905-7.163,16.041-1.258,22.64
		C358.383,395.289,362.767,397.092,367.17,397.092z"/>
	<path style="fill:#F0353D;" d="M213.229,397.094c-2.713,0-5.464-0.691-7.985-2.141c-7.674-4.419-10.313-14.222-5.895-21.895
		l81.237-141.094c4.418-7.675,14.22-10.313,21.894-5.895c7.675,4.419,10.313,14.222,5.895,21.895L227.14,389.058
		C224.173,394.211,218.777,397.094,213.229,397.094z"/>
</g>
<path d="M503.983,4.276H8.017C3.589,4.276,0,7.865,0,12.292v102.614v384.802c0,4.427,3.589,8.017,8.017,8.017h495.967
	c4.428,0,8.017-3.589,8.017-8.017V114.906V12.292C512,7.865,508.412,4.276,503.983,4.276z M495.967,20.309v86.58H16.033v-86.58
	H495.967z M16.033,491.691V122.923h479.933v368.768H16.033z"/>
<path d="M264.551,97.269c18.566,0,33.67-15.105,33.67-33.67s-15.105-33.67-33.67-33.67s-33.67,15.105-33.67,33.67
	S245.986,97.269,264.551,97.269z M264.551,45.962c9.725,0,17.637,7.912,17.637,17.637s-7.912,17.637-17.637,17.637
	c-9.725,0-17.637-7.912-17.637-17.637S254.826,45.962,264.551,45.962z"/>
<path d="M170.489,97.269c18.566,0,33.67-15.105,33.67-33.67s-15.105-33.67-33.67-33.67s-33.67,15.105-33.67,33.67
	S151.923,97.269,170.489,97.269z M170.489,45.962c9.725,0,17.637,7.912,17.637,17.637s-7.912,17.637-17.637,17.637
	s-17.637-7.912-17.637-17.637S160.764,45.962,170.489,45.962z"/>
<path d="M76.426,97.269c18.566,0,33.67-15.105,33.67-33.67s-15.105-33.67-33.67-33.67s-33.67,15.105-33.67,33.67
	S57.86,97.269,76.426,97.269z M76.426,45.962c9.725,0,17.637,7.912,17.637,17.637s-7.912,17.637-17.637,17.637
	s-17.637-7.912-17.637-17.637S66.701,45.962,76.426,45.962z"/>
<path d="M168.877,232.063c0.174-6.422-2.163-12.527-6.582-17.191c-4.419-4.664-10.389-7.327-16.811-7.501
	c-6.403-0.175-12.526,2.165-17.19,6.582l-81.236,76.96c-4.866,4.61-7.602,11.098-7.507,17.801
	c0.095,6.703,3.015,13.112,8.011,17.581l81.237,72.686c4.417,3.951,10.109,6.126,16.028,6.126c0.001,0,0.002,0,0.003,0
	c6.837,0,13.371-2.92,17.929-8.013c8.842-9.883,7.996-25.117-1.887-33.96l-61.769-55.267l62.274-58.995
	C166.039,244.454,168.703,238.484,168.877,232.063z M150.348,237.232l-68.594,64.983c-1.627,1.541-2.534,3.693-2.502,5.935
	c0.032,2.24,1,4.365,2.67,5.86l68.258,61.073c3.294,2.947,3.577,8.025,0.63,11.32c-1.541,1.723-3.665,2.672-5.982,2.672
	c-1.971,0-3.867-0.725-5.339-2.043l-81.236-72.685c-1.665-1.49-2.639-3.626-2.671-5.86c-0.031-2.234,0.881-4.397,2.502-5.933
	l81.236-76.96c1.501-1.422,3.449-2.198,5.508-2.198c0.074,0,0.149,0.001,0.222,0.003c2.141,0.058,4.13,0.946,5.603,2.5
	c1.473,1.554,2.252,3.589,2.194,5.73C152.791,233.77,151.903,235.761,150.348,237.232z"/>
<path d="M464.942,290.914l-81.236-76.96c-9.626-9.119-24.878-8.709-34.001,0.919c-9.119,9.626-8.707,24.878,0.919,33.999
	l62.274,58.995l-61.769,55.267c-9.882,8.843-10.728,24.076-1.887,33.961c4.558,5.092,11.092,8.014,17.927,8.014
	c0.001,0,0.002,0,0.003,0c5.921,0,11.614-2.176,16.029-6.127l81.236-72.685c4.997-4.471,7.917-10.88,8.01-17.583
	C472.543,302.011,469.807,295.523,464.942,290.914z M456.416,308.489c-0.031,2.233-1.004,4.369-2.67,5.859l-81.236,72.685
	c-1.472,1.317-3.367,2.043-5.339,2.043h-0.001c-2.314,0-4.438-0.949-5.979-2.671c-2.948-3.294-2.666-8.373,0.629-11.321
	l68.257-61.073c1.671-1.494,2.639-3.619,2.67-5.86c0.032-2.241-0.875-4.393-2.502-5.935l-68.594-64.983
	c-3.209-3.04-3.347-8.125-0.307-11.333c1.574-1.661,3.696-2.499,5.822-2.499c1.98,0,3.965,0.727,5.511,2.193l81.236,76.96
	c1.623,1.536,2.533,3.699,2.502,5.933v0.002H456.416z"/>
<path d="M306.481,219.122c0-0.001-0.001-0.001-0.001-0.001c-11.495-6.614-26.226-2.647-32.842,8.843l-81.236,141.094
	c-6.618,11.492-2.65,26.225,8.843,32.843c3.648,2.099,7.792,3.21,11.983,3.21c8.585,0,16.577-4.619,20.857-12.053l81.236-141.093
	c3.205-5.567,4.051-12.05,2.382-18.252C316.033,227.509,312.047,222.327,306.481,219.122z M301.427,243.964l-81.235,141.094
	c-1.427,2.479-4.096,4.019-6.963,4.019c-1.409,0-2.749-0.36-3.985-1.071c-3.831-2.205-5.153-7.117-2.948-10.948l81.237-141.094
	c1.481-2.573,4.184-4.014,6.961-4.014c1.356,0,2.73,0.344,3.987,1.068c1.856,1.068,3.184,2.795,3.74,4.862
	C302.778,239.947,302.496,242.108,301.427,243.964z"/>
<g>
</g>
<g>
</g>
<g>
</g>
<g>
</g>
<g>
</g>
<g>
</g>
<g>
</g>
<g>
</g>
<g>
</g>
<g>
</g>
<g>
</g>
<g>
</g>
<g>
</g>
<g>
</g>
<g>
</g>
</svg>
