<?xml version="1.0" encoding="iso-8859-1"?>
<!-- Generator: Adobe Illustrator 19.0.0, SVG Export Plug-In . SVG Version: 6.00 Build 0)  -->
<svg version="1.1" id="Layer_1" xmlns="http://www.w3.org/2000/svg" xmlns:xlink="http://www.w3.org/1999/xlink" x="0px" y="0px"
	 viewBox="0 0 511.999 511.999" style="enable-background:new 0 0 511.999 511.999;" xml:space="preserve">
<circle style="fill:#FFD630;" cx="255.997" cy="255.998" r="255.997"/>
<path style="fill:#F5BE18;" d="M511.889,260.331L394.94,143.382L115.505,304.423l12.661,13.883l-35.54,52.532l140.05,140.05
	c7.664,0.666,15.549,1.111,23.434,1.111c139.939,0,253.557-112.284,255.888-251.558L511.889,260.331z"/>
<path style="fill:#E84F4F;" d="M127.612,139.051h256.777c8.219,0,14.882,6.664,14.882,14.882v141.939
	c0,8.219-6.664,14.882-14.882,14.882H127.612c-8.219,0-14.882-6.664-14.882-14.882V153.933
	C112.728,145.715,119.392,139.051,127.612,139.051z"/>
<path style="fill:#D14747;" d="M394.94,143.382c2.666,2.666,4.332,6.442,4.332,10.55v141.939c0,8.219-6.664,14.882-14.882,14.882
	H127.612c-4.998,0-9.441-2.444-12.105-6.331L394.94,143.382z"/>
<path style="fill:#F7F7F8;" d="M126.723,150.157h258.554v149.38H126.723V150.157z"/>
<path style="fill:#D14747;" d="M111.508,316.307h143.826h1.222h143.826c3.776,0,25.656,32.097,29.321,36.539
	c2.332,2.777,0.889,4.887-2.777,4.776l-171.037-0.444l-171.037,0.444c-3.665,0-5.109-1.999-2.777-4.776
	c3.665-4.443,25.545-36.539,29.321-36.539H111.508z"/>
<path style="fill:#E84F4F;" d="M111.508,316.307c-3.776,0-25.656,32.097-29.321,36.539c-2.332,2.777-0.889,4.887,2.777,4.776
	l171.037-0.444l171.037,0.444c2.555,0,3.998-1,3.887-2.443L111.508,316.307z"/>
<path style="fill:#D14747;" d="M96.736,372.727c-3.665,0-14.771-10.107-15.438-15.104l-0.222-2.11c115.283,0,234.565,0,349.848,0
	l-0.222,2.11c-0.555,4.998-10.551,15.104-14.216,15.104C309.643,373.061,203.578,373.061,96.736,372.727z"/>
<path style="fill:#EBECEC;" d="M228.345,341.185h15.215h28.766h15.215l4.776,12.328h-19.991h-28.766H223.57L228.345,341.185z"/>
<path style="fill:#004F59;" d="M177.7,310.754h18.77v5.553H177.7V310.754z M315.419,310.754h18.77v5.553h-18.77V310.754z"/>
<path style="fill:#808080;" d="M153.266,253.779v-57.53h11.661v22.657h22.657v-22.657h11.661v57.53h-11.66v-25.1h-22.657v25.1
	L153.266,253.779L153.266,253.779z M224.236,253.779v-47.757h-16.992v-9.774h45.647v9.774h-16.992v47.757H224.236z M260.22,253.779
	v-57.53h17.437l10.329,39.205l10.217-39.205h17.437v57.53h-10.773v-45.314l-11.328,45.314h-11.217l-11.328-45.314v45.314H260.22z
	 M327.636,253.779v-57.086h11.661v47.313h28.877v9.774h-40.538V253.779z"/>
<g>
</g>
<g>
</g>
<g>
</g>
<g>
</g>
<g>
</g>
<g>
</g>
<g>
</g>
<g>
</g>
<g>
</g>
<g>
</g>
<g>
</g>
<g>
</g>
<g>
</g>
<g>
</g>
<g>
</g>
</svg>
