<svg xmlns="http://www.w3.org/2000/svg" viewBox="0 0 48 48"><defs><style>.cls-1{fill:#201602}</style></defs><g id="Layer_2" data-name="Layer 2"><g id="layer_1-2" data-name="layer 1"><path class="cls-1" d="M47 48H1a1 1 0 0 1-1-1V7a1 1 0 0 1 1-1h6v2H2v38h44V8h-5V6h6a1 1 0 0 1 1 1v40a1 1 0 0 1-1 1z"/><path class="cls-1" d="M24 47a1 1 0 0 1-1-1V36h2v5.53A6 6 0 0 1 29 40h11V2H29a4 4 0 0 0-4 4h-2a6 6 0 0 1 6-6h12a1 1 0 0 1 1 1v40a1 1 0 0 1-1 1H29a4 4 0 0 0-4 4 1 1 0 0 1-1 1z"/><path class="cls-1" d="M25 46h-2a4 4 0 0 0-4-4H7a1 1 0 0 1-1-1V1a1 1 0 0 1 1-1h12a6 6 0 0 1 6 6v2h-2V6a4 4 0 0 0-4-4H8v38h11a6 6 0 0 1 6 6z"/><path class="cls-1" d="M24 35a13 13 0 1 1 13-13 13 13 0 0 1-13 13zm0-24a11 11 0 1 0 11 11 11 11 0 0 0-11-11z"/><path class="cls-1" d="M24 29a4 4 0 0 1-4-4h2a2 2 0 1 0 2-2 4 4 0 1 1 4-4h-2a2 2 0 1 0-2 2 4 4 0 0 1 0 8z"/><path class="cls-1" d="M23 28h2v3h-2zM23 13h2v3h-2zM30 21h2v2h-2zM16 21h2v2h-2z"/></g></g></svg>