<svg data-name="filled outline" xmlns="http://www.w3.org/2000/svg" viewBox="0 0 340 340"><path style="fill:#d0cde2" d="M78.747 32.177h182.506v275.647H78.747z"/><path style="fill:#fff" d="M92.456 45.173h155.088v249.655H92.456z"/><path style="fill:#ffe6bd" d="M78.747 32.177 54.66 10h230.68l-24.087 22.177H78.747z"/><path style="fill:#ffc45f" d="m54.66 10 24.087 22.177v275.646L54.66 330V10z"/><path d="M197.258 307.823 228.8 212.8s21.486 9.41 20.731 41.832v46.017z" style="fill:#d0cde2"/><path style="fill:#ffc45f" d="M261.253 32.177 285.34 10v320l-24.087-22.177V32.177z"/><path style="fill:#ffa82c" d="m285.34 330-24.087-22.177H78.747L54.66 330h230.68z"/><path style="fill:#fc707e" d="m222.858 259.841-8.919 54.113-12.59-17.728-21.268 16.044 14.735-63.192 28.042 10.763z"/><path style="fill:#fc707e" d="m211.971 260.171 28.497 56.23 7.639-20.175 20.858-1.284-32.251-49.946-24.743 15.175z"/><path d="M242.051 236.867a28.492 28.492 0 0 1-28.491 28.492c-37.717-1.3-37.707-55.686 0-56.984a28.491 28.491 0 0 1 28.491 28.492z" style="fill:#fc707e"/><path d="M225.77 236.867a12.211 12.211 0 0 1-12.21 12.211c-16.164-.559-16.16-23.866 0-24.422a12.211 12.211 0 0 1 12.21 12.211z" style="fill:#fff"/><path d="M289.308 9.573a4.006 4.006 0 0 0-3.777-3.558c-.175-.043-230.678 0-230.871-.015a4.215 4.215 0 0 0-2.247.692A4.088 4.088 0 0 0 50.66 10v320a4.052 4.052 0 0 0 4 4h230.68a4 4 0 0 0 4-4c.066-.3-.01-320.128-.032-320.427zM275.09 14l-15.4 14.177H80.307L64.91 14zM58.66 19.12l16.087 14.811v272.138L58.66 320.88zM281.34 326H64.91l15.4-14.177h84.534a4 4 0 0 0 0-8H82.747V36.177h174.506V254.21a4 4 0 1 0 8 0V33.931L281.34 19.12z" style="fill:#2f313f"/><path d="M246.051 236.867a32.528 32.528 0 0 0-32.491-32.492c-27.38-.236-42.576 32.825-24.872 53.369l-12.5 53.617a4 4 0 0 0 6.3 4.1l17.984-13.561 10.206 14.373a4.026 4.026 0 0 0 7.208-1.667l2.487-15.09c.767-5.2-6.95-6.482-7.894-1.3l-.906 5.5-6.963-9.805a4.024 4.024 0 0 0-5.67-.877l-12.458 9.4 9-38.581a32.293 32.293 0 0 0 16.645 5.473l24.773 48.883a4 4 0 0 0 7.308-.392l6.725-17.757 18.277-1.125a4 4 0 0 0 3.115-6.163l-28.493-44.127a32.3 32.3 0 0 0 2.219-11.778zm-56.983 0a24.52 24.52 0 0 1 24.492-24.492c32.414 1.151 32.407 47.838 0 48.983a24.519 24.519 0 0 1-24.492-24.491zm72.828 54.5-14.034.863a4 4 0 0 0-3.5 2.576l-4.43 11.7-19.231-37.949a32.549 32.549 0 0 0 18.7-12.025z" style="fill:#2f313f"/><path d="M213.56 220.656a16.23 16.23 0 0 0-16.211 16.211c.761 21.455 31.664 21.449 32.422 0a16.23 16.23 0 0 0-16.211-16.211zm0 24.421c-10.852-.345-10.848-16.077 0-16.421 10.85.344 10.849 16.078 0 16.421zM135.2 89.912h69.6a4 4 0 0 0 0-8h-69.6c-5.256.126-5.295 7.863 0 8zM115.2 146.24h109.6a4 4 0 1 0 0-8H115.2c-5.242.121-5.307 7.86 0 8zM155.2 110.076c-5.267.131-5.282 7.865 0 8h29.6c5.267-.13 5.282-7.865 0-8zM198.8 170.4a4 4 0 0 0-4-4h-49.6a4 4 0 1 0 0 8h49.6a4 4 0 0 0 4-4zM147.088 219.1h-42.954c-5.263.129-5.286 7.864 0 8h42.954c5.263-.126 5.286-7.862 0-8zM147.088 241h-21.477c-5.269.132-5.28 7.866 0 8h21.477c5.27-.136 5.28-7.871 0-8z" style="fill:#2f313f"/></svg>