<?xml version="1.0" encoding="iso-8859-1"?>
<!-- Generator: Adobe Illustrator 19.0.0, SVG Export Plug-In . SVG Version: 6.00 Build 0)  -->
<svg version="1.1" id="Layer_1" xmlns="http://www.w3.org/2000/svg" xmlns:xlink="http://www.w3.org/1999/xlink" x="0px" y="0px"
	 viewBox="0 0 490 490" style="enable-background:new 0 0 490 490;" xml:space="preserve">
<g>
	<g id="XMLID_29_">
		<g>
			<polygon style="fill:#1BD741;" points="397.5,265 397.5,385 237.5,385 192.5,480 102.5,480 102.5,395 187.5,225 92.5,225 
				92.5,105 252.5,105 297.5,10 382.5,10 382.5,100 297.5,265 			"/>
		</g>
		<g>
			<g>
				<path style="fill:#231F20;" d="M192.5,490h-90c-5.522,0-10-4.477-10-10v-85c0-1.552,0.361-3.083,1.056-4.472L171.319,235H92.5
					c-5.522,0-10-4.477-10-10V105c0-5.523,4.478-10,10-10h153.672l42.291-89.281C290.117,2.227,293.636,0,297.5,0h85
					c5.522,0,10,4.477,10,10v90c0,1.593-0.381,3.163-1.11,4.58L313.9,255h83.6c5.522,0,10,4.477,10,10v120c0,5.523-4.478,10-10,10
					H243.828l-42.291,89.281C199.883,487.773,196.364,490,192.5,490z M112.5,470h73.672l42.291-89.281
					c1.654-3.493,5.173-5.719,9.037-5.719h150V275h-90c-3.487,0-6.723-1.817-8.538-4.794c-1.815-2.978-1.948-6.686-0.352-9.786
					L372.5,97.576V20h-68.672l-42.291,89.281c-1.654,3.493-5.173,5.719-9.037,5.719h-150v100h85c3.466,0,6.685,1.794,8.507,4.743
					c1.821,2.948,1.987,6.629,0.438,9.73L112.5,397.361V470z"/>
			</g>
		</g>
	</g>
</g>
<g>
</g>
<g>
</g>
<g>
</g>
<g>
</g>
<g>
</g>
<g>
</g>
<g>
</g>
<g>
</g>
<g>
</g>
<g>
</g>
<g>
</g>
<g>
</g>
<g>
</g>
<g>
</g>
<g>
</g>
</svg>
