<svg xmlns="http://www.w3.org/2000/svg" width="47.852" height="48.001"><path d="M.9 40.024a1.947 1.947 0 0 0 1.941 1.941h8.949a1.947 1.947 0 0 0 1.941-1.941V31.7H.9v8.324z" fill="#79ccb8"/><path fill="#59c5ef" d="M.903 21.434h12.832V31.7H.903z"/><path d="M11.793.9H2.844A1.947 1.947 0 0 0 .9 2.844v8.324h12.835V2.844A1.948 1.948 0 0 0 11.793.9z" fill="#f1bb6b"/><path fill="#e49a61" d="M.903 11.168h12.832v10.266H.903z"/><path d="M11.793 0H2.844A2.847 2.847 0 0 0 0 2.844v37.18a2.848 2.848 0 0 0 2.844 2.844h8.949a2.847 2.847 0 0 0 2.844-2.844V2.844A2.847 2.847 0 0 0 11.793 0zm1.039 20.532H1.805v-8.461h11.027zm-11.027 1.8h11.027V30.8H1.805zm0-19.492a1.041 1.041 0 0 1 1.039-1.035h8.949a1.041 1.041 0 0 1 1.039 1.039v7.423H1.805zm11.027 37.18a1.041 1.041 0 0 1-1.039 1.039H2.844a1.041 1.041 0 0 1-1.039-1.039V32.6h11.027z" fill="#7a8e9b"/><g><path fill="#e2e2e2" d="m11.667 24.514 7.277-7.24 9.05 9.098-7.276 7.24z"/><path d="M5.8 30.388a1.948 1.948 0 0 0-.007 2.746l6.307 6.344a1.948 1.948 0 0 0 2.746.007l5.9-5.87-9.05-9.1z" fill="#ffbd66"/><path d="M41.214 10.517 34.9 4.173a1.949 1.949 0 0 0-2.747-.007l-5.9 5.871 9.05 9.1 5.9-5.871a1.948 1.948 0 0 0 .011-2.749z" fill="#79ccb8"/><path fill="#db5743" d="m18.958 17.278 7.277-7.24 9.05 9.096-7.277 7.24z"/><path d="m41.853 9.88-6.311-6.343a2.822 2.822 0 0 0-2.009-.837h-.008a2.824 2.824 0 0 0-2 .825L25.62 9.4l-7.278 7.241-7.276 7.238-5.9 5.871a2.849 2.849 0 0 0-.011 4.022l6.312 6.343a2.825 2.825 0 0 0 2.009.836h.008a2.824 2.824 0 0 0 2-.826l5.9-5.869 7.278-7.241 7.277-7.239 5.9-5.871a2.85 2.85 0 0 0 .009-4.022zm-21.1 22.459-7.776-7.819 6-5.967 7.778 7.817zm7.279-7.239-2.308-2.319-5.47-5.5 6-5.968 7.776 7.817zM14.213 38.846a1.032 1.032 0 0 1-.732.3 1.03 1.03 0 0 1-.734-.3L6.433 32.5a1.042 1.042 0 0 1 0-1.47l5.267-5.237 7.778 7.817zM40.57 12.623l-5.261 5.234-3.924-3.943-3.854-3.874 5.261-5.234a1.035 1.035 0 0 1 .732-.3 1.035 1.035 0 0 1 .735.3l6.311 6.344a1.045 1.045 0 0 1 0 1.469z" fill="#525c6b"/></g><g><path fill="#f87670" d="M16.153 34.267h10.266v12.831H16.153z"/><path d="M7.829 34.267a1.947 1.947 0 0 0-1.942 1.941v8.948A1.948 1.948 0 0 0 7.829 47.1h8.324V34.266H7.829z" fill="#59c5ef"/><path d="M45.008 34.267h-8.324V47.1h8.324a1.948 1.948 0 0 0 1.942-1.941v-8.95a1.947 1.947 0 0 0-1.942-1.942z" fill="#fddc85"/><path fill="#79ccb8" d="M26.418 34.267h10.266v12.831H26.418z"/><path d="M45.008 33.365H7.828a2.846 2.846 0 0 0-2.844 2.844v8.948A2.847 2.847 0 0 0 7.828 48h37.18a2.847 2.847 0 0 0 2.844-2.844v-8.947a2.847 2.847 0 0 0-2.844-2.844zM6.79 45.157v-8.948a1.04 1.04 0 0 1 1.04-1.039h7.421V46.2H7.83a1.04 1.04 0 0 1-1.04-1.043zm10.265-9.988h8.461V46.2h-8.461zm10.266 0h8.461V46.2h-8.461zm18.726 9.988a1.041 1.041 0 0 1-1.04 1.039h-7.421V35.17h7.421a1.041 1.041 0 0 1 1.04 1.039z" fill="#7a8e9b"/><circle cx="11.168" cy="40.683" r="1.925" fill="#fff"/></g></svg>