<svg xmlns="http://www.w3.org/2000/svg" xml:space="preserve" width="655.359" height="655.359" style="shape-rendering:geometricPrecision;text-rendering:geometricPrecision;image-rendering:optimizeQuality;fill-rule:evenodd;clip-rule:evenodd" viewBox="0 0 6.827 6.827"><defs><clipPath id="id0"><path d="M3.413 0a3.413 3.413 0 1 1 0 6.827 3.413 3.413 0 0 1 0-6.827z"/></clipPath><style>.fil1{fill:#1e88e5}.fil4{fill:#4e342e;fill-rule:nonzero}</style></defs><g id="Layer_x0020_1"><path d="M3.413 0a3.413 3.413 0 1 1 0 6.827 3.413 3.413 0 0 1 0-6.827z" style="fill:#64b5f6"/><g style="clip-path:url(#id0)"><g id="_351300248"><path id="_4112025281" class="fil1" d="m4.912 2.212 3.786 3.786.026.032.026.033.024.033.024.034.023.034.022.035.02.035.02.036.02.036.018.037.017.037.016.037.015.038.014.039.013.039.012.039.01.04.01.04.01.04.007.04.006.041.006.042.004.041.003.042.002.042v.042L5.28 3.196v-.042l-.002-.042-.003-.042-.005-.042-.005-.04-.006-.042-.008-.04-.009-.04-.01-.04-.01-.04-.012-.04-.013-.038-.014-.039-.015-.038-.016-.037-.018-.038-.018-.036-.019-.037-.02-.035-.02-.036-.022-.034-.023-.035-.024-.033-.025-.034-.025-.032z"/><path id="_411202696" class="fil1" d="m5.28 3.196 3.786 3.786v.027l-.001.026-.002.026-.002.025-.003.026-.003.025-.004.025-.005.025-.005.024-.006.024-.006.024-.007.024-.007.024-.008.023-.009.023-.009.022-.01.023-.01.022-.01.022-.012.021-.011.021-.012.02-.013.021-.013.02-.014.02-.014.02-.014.018-.015.02-.015.017-.016.018-.016.018-.017.017-3.786-3.787.016-.017.017-.017.015-.018.016-.018.015-.019.014-.019.014-.02.014-.019.013-.02.012-.02.013-.021.011-.021.011-.022.011-.021.01-.022.01-.023.009-.022.008-.023.008-.024.008-.023.007-.024.006-.024.006-.024.005-.025.005-.024.004-.025.003-.026.003-.025.002-.026.002-.026v-.026z"/><path id="_411210664" class="fil1" d="m4.99 3.906 3.787 3.787-.017.016-.018.017-.017.015-.019.016-.018.015-.02.014-.019.014-.02.014-.02.013-.02.012-.02.012-.022.012-.021.011-.022.01-.022.011-.022.01-.023.009-.023.008-.023.008-.024.008-.023.007-.024.006-.025.006-.024.005-.025.005-.025.004-.025.003-.025.003-.026.002-.026.002h-.026l-.026.001L4.28 4.196h.026l.026-.002.026-.001.025-.002.026-.003.025-.004.025-.004.025-.004.024-.005.024-.006.024-.007.024-.006.024-.008.023-.008.023-.009.022-.009.023-.01.022-.01.022-.01.021-.011.021-.012.02-.012.021-.013.02-.013.02-.013.02-.014.019-.015.018-.015.018-.015.018-.016.018-.016z"/><path id="_411217552" class="fil1" d="m4.28 4.196 3.787 3.786h-.39L3.891 4.196z"/><path id="_354137360" class="fil1" d="m3.89 4.196 3.787 3.786h-.02l-.01.001-.01.001-.01.001-.01.002-.01.002-.01.002-.01.002-.01.002-.01.003-.01.003-.009.003-.01.004-.009.003-.009.004-.009.004-.009.005-.009.004-.008.005-.01.005-.008.005-.008.006-.008.005-.008.006-.008.006-.008.006-.008.006-.007.007-.008.006-.007.007-.007.007-3.786-3.786.007-.007.007-.007.007-.007.008-.006.008-.006.007-.007.008-.005.009-.006.008-.006.008-.005.009-.005.008-.005.01-.005.008-.005.009-.004.009-.004.01-.004.008-.004.01-.003.01-.003.009-.003.01-.003.01-.002.01-.003.009-.002.01-.001.01-.002.01-.001.01-.001h.01l.01-.001z"/><path id="_354137648" class="fil1" d="M3.603 4.319 7.39 8.105l-.007.007-.007.007-.007.008-.006.007-.006.008-.006.008-.006.008-.006.008-.005.009-.006.008-.005.008-.005.01-.005.008-.004.009-.004.009-.004.009-.004.01-.004.008-.003.01-.004.01-.003.009-.002.01-.003.01-.002.01-.002.01-.002.01-.001.01-.001.01-.001.01-.001.01v.02L3.48 4.607v-.02l.001-.01.001-.011.002-.01.001-.01.002-.01.002-.01.002-.01.002-.01.003-.01.003-.009.003-.01.004-.009.003-.01.004-.008.004-.01.005-.008.004-.01.005-.008.005-.009.005-.008.005-.009.006-.008.006-.008.005-.008.006-.008.007-.008.006-.007.007-.008.007-.007z"/><path id="_354137672" class="fil1" d="m3.481 4.607 3.786 3.786v.02l.002.01v.01l.002.01.001.009.002.009.002.009.002.009.002.008.003.009.002.008.003.008.003.008.004.008.003.008.003.008.004.008.004.007.004.008.004.007.004.007.004.008.004.007.004.007.005.007.004.007.005.007.004.007.005.007.004.007.005.007-3.787-3.786-.004-.007-.005-.007-.004-.007-.005-.007-.004-.007-.005-.007-.004-.007-.004-.007-.004-.008-.005-.007-.004-.007-.004-.008-.004-.007-.003-.008-.004-.007-.003-.008-.004-.008-.003-.008-.003-.008-.003-.008-.003-.009-.002-.008-.002-.009-.002-.008-.002-.01-.002-.009-.001-.009-.002-.01v-.009l-.001-.01v-.01z"/><path id="_354137336" class="fil1" d="m3.578 4.866 3.787 3.786.002.003L3.58 4.87z"/><path id="_354137384" class="fil1" d="m3.58 4.87 3.787 3.785.01.014-3.785-3.787z"/><path id="_354137576" class="fil1" d="M3.592 4.882 7.378 8.67l.004.004.004.005.004.004.004.004.004.005.003.004.004.005.003.004.003.005.002.004.003.004.002.005.003.004.002.005.002.004.002.005L3.64 4.954l-.001-.005-.002-.004-.003-.005-.002-.004-.002-.005-.003-.004-.003-.005-.003-.004-.003-.005-.003-.004-.003-.004-.004-.005-.004-.004L3.6 4.89l-.004-.004z"/><path id="_354137192" class="fil1" d="M3.64 4.954 7.427 8.74l.001.005.002.004.001.005.002.005v.005l.002.005v.005l.002.006v.005l.001.006v.005l.001.006v.024L3.654 5.04v-.03l-.001-.006V5l-.002-.006v-.005l-.001-.005-.001-.005-.002-.005v-.005l-.002-.005-.002-.005z"/><path id="_354138296" class="fil1" d="M3.653 5.04 7.44 8.826v.012l-.001.006v.006l-.001.006-.001.005-.001.006-.001.006-.002.006-.001.005-.002.006-.002.005-.001.006-.002.005-.003.006-.002.005-.002.005-.003.006-.003.005-.002.005-.003.005-.003.005-.003.005-.004.005-.003.005-.004.004-.003.005-.004.004-.004.005-.004.004-.004.005-.004.004-3.786-3.786.004-.005.004-.004.004-.004.004-.005.004-.004.003-.005.004-.005.003-.004.003-.005.003-.005.003-.005.003-.005.003-.005.003-.006.002-.005.003-.005.002-.006.002-.005.002-.005.002-.006.002-.005.002-.006.001-.006.001-.005.002-.006v-.006l.001-.006.001-.006v-.005l.001-.006v-.006z"/><path id="_354137888" class="fil1" d="m3.581 5.208 3.786 3.786-.004.004-.004.004-.005.004-.004.004-.005.003-.004.004-.005.003-.005.004-.005.003-.004.003-.005.003-.006.003-.005.003-.005.003-.005.002-.005.003-.006.002-.005.002-.006.002-.005.002-.006.002-.005.001-.006.002-.006.001-.005.001-.006.001-.006.001-.006.001h-.012l-.006.001H7.2L3.413 5.28H3.431l.006-.001.006-.001h.006l.005-.002.006-.001.006-.001.005-.002.006-.002.006-.001.005-.002.006-.002.005-.002.005-.003.006-.002.005-.003.005-.002.005-.003.005-.003.005-.003.005-.003.005-.003.005-.004.004-.003.005-.004.005-.004.004-.003.004-.004.005-.004z"/><path id="_354138272" class="fil1" d="M3.413 5.28 7.2 9.066H7.15l-.048-.002-.048-.003-.047-.004-.047-.006-.047-.006-.047-.008-.046-.008-.045-.01-.045-.011-.045-.012-.044-.013-.044-.014-.043-.015-.043-.016-.042-.018-.041-.018-.042-.019-.04-.02-.04-.02-.04-.023-.038-.022-.038-.024-.038-.025-.037-.025-.036-.027-.036-.027-.035-.028-.034-.029L2.19 4.827l.034.029.035.028.036.027.036.026.037.026.037.025.038.023.04.023.039.022.04.021.04.02.041.02.042.017.042.017.043.016.043.016.044.014.044.013.045.012.045.01.045.01.046.01.046.007.047.006.047.005.048.005.048.003.048.001z"/><path id="_351300104" class="fil1" d="M2.09 2.09a1.86 1.86 0 0 1 1.323-.543c.52 0 .987.186 1.324.485.336.299.543.711.543 1.164 0 .28-.11.53-.29.71-.179.18-.429.29-.71.29h-.39a.408.408 0 0 0-.286.123.411.411 0 0 0-.123.288c0 .11.049.185.097.259l.003.003.01.013c.025.024.04.047.05.072a.24.24 0 0 1 .012.086.24.24 0 0 1-.072.168.24.24 0 0 1-.168.072 1.86 1.86 0 0 1-1.866-1.867c0-.518.207-.985.544-1.322z"/></g></g><path d="M3.413 0a3.413 3.413 0 1 1 0 6.827 3.413 3.413 0 0 1 0-6.827z" style="fill:none"/><path d="M3.413 1.547a1.86 1.86 0 0 0-1.866 1.866A1.86 1.86 0 0 0 3.413 5.28a.24.24 0 0 0 .168-.072.24.24 0 0 0 .072-.168.24.24 0 0 0-.013-.086.205.205 0 0 0-.048-.072L3.58 4.87l-.003-.003a.448.448 0 0 1-.097-.26c0-.11.048-.212.122-.287a.408.408 0 0 1 .288-.123h.39c.28 0 .53-.11.71-.29.18-.18.289-.43.289-.71 0-.453-.207-.865-.543-1.164a1.987 1.987 0 0 0-1.324-.485z" style="fill:#6d4c41;fill-rule:nonzero"/><path class="fil4" d="M2.871 2.631a.41.41 0 0 1-.287-.122.41.41 0 0 1-.123-.288.41.41 0 0 1 .123-.288.41.41 0 0 1 .287-.122.41.41 0 0 1 .288.122.41.41 0 0 1 .122.288.41.41 0 0 1-.122.288.41.41 0 0 1-.288.122zM3.955 2.631a.41.41 0 0 1-.287-.122.41.41 0 0 1-.122-.288.41.41 0 0 1 .122-.288.41.41 0 0 1 .287-.122.41.41 0 0 1 .288.122.41.41 0 0 1 .122.288.41.41 0 0 1-.122.288.41.41 0 0 1-.288.122zM4.607 3.498a.411.411 0 0 1-.288-.122.408.408 0 0 1-.123-.288c0-.11.048-.212.123-.287a.411.411 0 0 1 .288-.123.41.41 0 0 1 .287.123.409.409 0 0 1 .123.287.41.41 0 0 1-.123.288.41.41 0 0 1-.287.122zM2.221 3.498a.41.41 0 0 1-.288-.122.41.41 0 0 1-.122-.288.41.41 0 0 1 .122-.287.41.41 0 0 1 .288-.123.41.41 0 0 1 .288.123.41.41 0 0 1 .122.287.41.41 0 0 1-.122.288.41.41 0 0 1-.288.122z"/><path d="M4.438 3.256a.242.242 0 0 0 .169.072.24.24 0 0 0 .168-.072.239.239 0 0 0 .072-.168.24.24 0 0 0-.073-.167.24.24 0 0 0-.167-.073.242.242 0 0 0-.169.073.239.239 0 0 0-.073.167c0 .064.029.124.073.168z" style="fill:#f9a825;fill-rule:nonzero"/><path d="M3.788 2.389a.24.24 0 0 0 .167.072.24.24 0 0 0 .168-.072.24.24 0 0 0 .073-.168.24.24 0 0 0-.073-.168.24.24 0 0 0-.168-.072.24.24 0 0 0-.167.072.24.24 0 0 0-.073.168.24.24 0 0 0 .073.168z" style="fill:#e53935;fill-rule:nonzero"/><path d="M2.704 2.389a.24.24 0 0 0 .167.072.24.24 0 0 0 .168-.072.24.24 0 0 0 .072-.168.24.24 0 0 0-.072-.168.24.24 0 0 0-.168-.072.24.24 0 0 0-.167.072.24.24 0 0 0-.073.168.24.24 0 0 0 .073.168z" style="fill:#7cb342;fill-rule:nonzero"/><path d="M2.053 3.256a.24.24 0 0 0 .168.072.24.24 0 0 0 .168-.072.24.24 0 0 0 .072-.168.24.24 0 0 0-.072-.167.24.24 0 0 0-.168-.073.24.24 0 0 0-.168.073.24.24 0 0 0-.072.167.24.24 0 0 0 .072.168z" style="fill:#26c6da;fill-rule:nonzero"/></g></svg>