<svg xmlns="http://www.w3.org/2000/svg" xml:space="preserve" width="2048" height="2048" style="shape-rendering:geometricPrecision;text-rendering:geometricPrecision;image-rendering:optimizeQuality;fill-rule:evenodd;clip-rule:evenodd"><defs><style>.fil3{fill:#2196f3}.fil1{fill:#37474f}.fil4{fill:#ff9800}.fil2{fill:#fffde7}</style></defs><g id="Layer_x0020_1"><g id="_220495464"><path d="M1494 531c82 0 157 33 211 87s87 128 87 211l23 562c1 22-1 45-9 65-9 24-26 43-53 52-41 15-79 11-114-6-38-18-70-50-95-87l-187-276c-6 7-13 14-20 19-23 18-51 28-82 28-37 0-71-15-95-39-22-22-36-52-39-84H960c-3 33-17 62-39 84-24 24-58 39-95 39s-71-15-95-39c-9-9-17-19-23-31l-202 298c-25 37-58 70-95 87-35 16-73 20-114 6-27-10-44-29-53-52-8-20-10-43-9-65l22-562c0-82 33-157 87-211s128-87 211-87c42 0 82 9 119 25 33 14 63 35 89 60h525c26-25 56-45 89-60 36-16 77-25 119-25z" style="fill:#263238"/><circle class="fil1" cx="1503" cy="824" r="230"/><circle class="fil1" cx="543" cy="836" r="230"/><path class="fil2" d="M1346 856c-18 0-32-14-32-32s14-32 32-32h96c18 0 32 14 32 32s-14 32-32 32h-96zM1535 981c0 18-14 32-32 32s-32-14-32-32v-96c0-18 14-32 32-32s32 14 32 32v96zM1564 856c-18 0-32-14-32-32s14-32 32-32h96c18 0 32 14 32 32s-14 32-32 32h-96zM1535 763c0 18-14 32-32 32s-32-14-32-32v-96c0-18 14-32 32-32s32 14 32 32v96z"/><path class="fil3" d="M1087 789h162v64h-162zM801 789h158v64H801z"/><circle class="fil1" cx="825" cy="1051" r="134"/><circle class="fil1" cx="1254" cy="1051" r="134"/><path class="fil4" d="M875 1002c-13-13-31-21-50-21-20 0-37 8-50 21s-21 31-21 50c0 20 8 37 21 50s31 21 50 21c20 0 37-8 50-21s21-31 21-50c0-20-8-37-21-50zM1304 1002c-13-13-31-21-50-21-20 0-37 8-50 21s-21 31-21 50c0 20 8 37 21 50s31 21 50 21c20 0 37-8 50-21s21-31 21-50c0-20-8-37-21-50z"/><g><path class="fil2" d="M543 885c27 0 48 21 48 48s-21 48-48 48-48-21-48-48 21-48 48-48zM543 692c27 0 48 21 48 48s-21 48-48 48-48-21-48-48 21-48 48-48zM399 836c0-27 21-48 48-48s48 21 48 48-21 48-48 48-48-21-48-48zM591 836c0-27 21-48 48-48s48 21 48 48-21 48-48 48-48-21-48-48z"/></g></g><path style="fill:none" d="M0 0h2048v2048H0z"/></g></svg>