<?xml version="1.0" encoding="iso-8859-1"?>
<!-- Generator: Adobe Illustrator 18.1.1, SVG Export Plug-In . SVG Version: 6.00 Build 0)  -->
<svg version="1.1" id="Capa_1" xmlns="http://www.w3.org/2000/svg" xmlns:xlink="http://www.w3.org/1999/xlink" x="0px" y="0px"
	 viewBox="0 0 19.948 19.948" style="enable-background:new 0 0 19.948 19.948;" xml:space="preserve">
<g>
	<path d="M18.701,0.001H1.248C0.56,0.001,0,0.561,0,1.248v17.453c0,0.688,0.56,1.246,1.248,1.246h17.453
		c0.687,0,1.247-0.558,1.247-1.246V1.248C19.947,0.561,19.388,0.001,18.701,0.001z M13.734,2.547
		c-0.163,0.041-0.434,0.085-0.816,0.134c-0.768,0.089-1.239,0.175-1.412,0.256c-0.102,0.04-0.18,0.109-0.228,0.207
		c-0.084,0.146-0.13,0.418-0.146,0.816l-0.063,1.572l0.05,5.423v2.144c-0.02,0.675-0.026,1.134-0.026,1.377
		c0,0.91,0.021,1.49,0.065,1.742c0.047,0.251,0.123,0.433,0.232,0.542c0.108,0.11,0.291,0.196,0.544,0.262
		c0.371,0.089,0.665,0.138,0.875,0.147c0.456,0.016,0.744,0.08,0.866,0.194c0.024,0.106,0.037,0.195,0.037,0.267v0.097
		c-0.74,0.026-1.284,0.037-1.638,0.037c-0.2,0-0.562-0.011-1.083-0.037L9.31,17.754l-2.868-0.012h-0.23l-0.026-0.366
		c0.182-0.073,0.362-0.117,0.55-0.135c1.24-0.081,1.952-0.229,2.131-0.443c0.178-0.217,0.268-1.258,0.268-3.126l-0.011-1.279v-1.34
		l-0.05-1.476l0.024-0.862L9.084,7.761v-1.12L9.06,6.143l0.024-0.635c0.01-0.146,0.013-0.315,0.013-0.511
		c0-0.51-0.024-1.053-0.074-1.62C8.99,3.263,8.947,3.152,8.888,3.047C8.587,2.893,8.104,2.79,7.435,2.738
		c-0.668-0.055-1.05-0.113-1.14-0.178c-0.062-0.049-0.101-0.173-0.11-0.377H7.21l3.234,0.072c0.828,0,1.934-0.023,3.314-0.072
		C13.758,2.312,13.753,2.434,13.734,2.547z"/>
	<g>
	</g>
	<g>
	</g>
	<g>
	</g>
	<g>
	</g>
	<g>
	</g>
	<g>
	</g>
	<g>
	</g>
	<g>
	</g>
	<g>
	</g>
	<g>
	</g>
	<g>
	</g>
	<g>
	</g>
	<g>
	</g>
	<g>
	</g>
	<g>
	</g>
</g>
<g>
</g>
<g>
</g>
<g>
</g>
<g>
</g>
<g>
</g>
<g>
</g>
<g>
</g>
<g>
</g>
<g>
</g>
<g>
</g>
<g>
</g>
<g>
</g>
<g>
</g>
<g>
</g>
<g>
</g>
</svg>
