<svg fill="#000000" xmlns="http://www.w3.org/2000/svg"  viewBox="0 0 64 64" width="128px" height="128px"><path d="M56.02,31l-2.794-9.005L60.02,17l-9.494-2.206L54.02,7l-10.695,4.194L45.02,3	l-8.493,6.394L33.02,1l-5.897,7.494L19.02,3l-0.899,8.194L9.02,9l2.763,7.595L5.02,21l5,2l-3,8l6-4.667v5.359	c-0.696,0.162-1.271,0.313-1.521,0.384l-1.408,0.401l-0.043,1.463c-0.003,0.119-0.085,2.927,0.001,4.661	c0.227,4.468,2.504,7.552,5.942,8.249C18.341,53.694,25.311,60,28.516,60c0.005,0,0.011,0,0.016,0	c0.701-0.005,1.876-0.004,2.674-0.002V60c0.001,0,0.166-0.001,0.419-0.001C31.886,59.999,32.054,60,32.054,60v-0.002	c0.732-0.001,1.773-0.002,2.453,0.002c0.005,0,0.011,0,0.016,0c3.255,0,10.352-6.428,12.638-13.348	c3.389-0.731,5.632-3.797,5.857-8.227c0.088-1.736,0.005-4.377,0.001-4.489l-0.047-1.46l-1.661-0.474	c-0.344-0.1-0.794-0.229-1.291-0.359v-3.408L56.02,31z M26.602,28.604l1.722-4c0.003-0.008,0.01-0.012,0.013-0.019	c0.419-1.948,2.207-3.46,4.401-3.584c1.6-0.089,2.64,0.042,3.171,0.146l2.186-1.028c0.5-0.235,1.096-0.021,1.331,0.479	c0.235,0.5,0.021,1.096-0.479,1.331l-2.5,1.176c-0.228,0.107-0.487,0.125-0.728,0.048c0,0-0.926-0.266-2.868-0.155	c-1.449,0.082-2.594,1.152-2.608,2.437c-0.007,0.699,0.265,1.38,0.747,1.871c0.437,0.444,0.995,0.69,1.574,0.694	c0.787,0.004,1.417-0.173,1.72-0.502c0.237-0.257,0.262-0.586,0.242-0.816c-0.025-0.283-0.212-0.416-0.364-0.477	c-0.239-0.095-0.612-0.095-0.946,0.196c-0.415,0.364-1.047,0.32-1.411-0.096c-0.363-0.416-0.32-1.048,0.096-1.411	c0.848-0.74,2-0.949,3.006-0.545c0.921,0.37,1.523,1.176,1.611,2.155c0.08,0.895-0.191,1.729-0.762,2.349	C35.271,29.377,34.331,30,32.595,30c-0.015,0-0.03,0-0.044,0c-0.05,0-0.099-0.014-0.149-0.016C32.374,29.986,32.35,30,32.322,30	H27.52c-0.336,0-0.65-0.169-0.835-0.45S26.468,28.914,26.602,28.604z M49.022,38.222c-0.07,1.383-0.549,4.601-3.477,4.601h-2v1.979	c-0.018,0.066-0.041,0.132-0.06,0.198H36.02l6.364,2.71c-0.231,0.44-0.481,0.87-0.745,1.29H37.02l3.24,1.954	c-0.286,0.364-0.576,0.712-0.87,1.046h-3.37l1.817,1.625c-1.447,1.379-2.738,2.265-3.305,2.375c-0.866-0.005-2.32-0.003-2.985-0.001	c-0.765-0.001-2.192-0.002-2.942,0.008c-0.58-0.11-1.818-0.938-3.211-2.24L27.02,52l-3.334-0.007	c-0.26-0.297-0.517-0.605-0.771-0.924L26.02,49h-4.573c-0.182-0.291-0.355-0.588-0.521-0.889L27.02,45h-7.414	c-0.027-0.094-0.061-0.188-0.086-0.283V43h-2c-2.927,0-3.407-3.218-3.477-4.6c-0.041-0.812-0.039-1.934-0.028-2.834	c0.419-0.096,0.86-0.188,1.278-0.266c0.014-0.002,0.028,0,0.042-0.002c0.228-0.036,0.456-0.061,0.684-0.096l2,4.797l1.025-5.221	c1.413-0.175,2.823-0.324,4.231-0.44c-0.755,0.432-1.27,1.236-1.27,2.167c0,1.383,1.123,2.506,2.507,2.506	c1.383,0,2.507-1.123,2.507-2.506c0-1.04-0.636-1.932-1.54-2.311c4.074-0.251,8.121-0.256,12.126-0.016	c-0.928,0.366-1.587,1.268-1.587,2.328c0,1.383,1.12,2.506,2.5,2.506s2.5-1.123,2.5-2.506c0-0.955-0.541-1.777-1.326-2.2	c1.405,0.114,2.803,0.261,4.196,0.436L45.02,40l1.846-4.824c0.274,0.043,0.551,0.074,0.825,0.12c0.11,0.019,0.22,0.027,0.33,0.027	c0.048,0,0.095-0.009,0.143-0.013c0.298,0.065,0.6,0.138,0.888,0.214C49.062,36.371,49.063,37.424,49.022,38.222z"/></svg>