<svg version="1.1" id="Layer_1" xmlns="http://www.w3.org/2000/svg" x="0" y="0" viewBox="0 0 512 512" style="enable-background:new 0 0 512 512" xml:space="preserve"><style>.st8{fill:#ccc033}.st9{fill:#99af17}.st11{fill:#eacf32}.st17{fill:#a56021}.st19{fill:#bf6c0d}.st21{fill:#8c4c17}.st23{fill:#db9c2e}</style><path d="M286.776 430.509H78.662V182.92c0-55.989 45.388-101.377 101.377-101.377h5.359c55.989 0 101.377 45.388 101.377 101.377v247.589z" style="fill:#e58d23"/><path class="st19" d="M208.38 84.735a104.25 104.25 0 0 0-25.661-3.192c-57.469 0-104.057 46.588-104.057 104.056v244.909h51.322V185.6c0-48.613 33.337-89.437 78.396-100.865z"/><path d="M392.75 430.509H184.636V254.77c0-55.989 45.388-101.377 101.377-101.377h5.359c55.989 0 101.377 45.388 101.377 101.377v175.739z" style="fill:#f9bb32"/><path class="st23" d="M312.354 156.585a104.242 104.242 0 0 0-25.66-3.192h-.001c-57.469 0-104.056 46.588-104.056 104.056v173.059h51.322V257.45c-.001-48.613 33.336-89.436 78.395-100.865z"/><path class="st8" d="M459.908 299.917c3.559-5.739 5.665-12.824 5.665-20.496 0-17.804-11.327-32.462-25.896-34.404a40.647 40.647 0 0 0 1.21-9.871c0-19.125-13.068-34.629-29.188-34.629-16.12 0-29.188 15.504-29.188 34.629 0 3.405.421 6.692 1.193 9.801-13.642 2.907-23.997 17.05-23.997 34.072 0 7.671 2.106 14.756 5.665 20.496-13.113 3.398-22.933 17.247-22.933 33.823 0 19.125 13.068 34.629 29.188 34.629h77.564c1.455.265 2.944.402 4.461.402 16.12 0 29.188-15.504 29.188-34.629.001-16.577-9.819-30.425-22.932-33.823z"/><path class="st17" d="M413.585 316.212c-1.964 2.33-5.149 2.33-7.113 0l-19.322-22.924c-1.964-2.33-1.964-6.109 0-8.439s5.149-2.33 7.113 0l19.322 22.924c1.964 2.33 1.964 6.109 0 8.439z"/><path class="st9" d="M361.068 333.337c0-16.576 9.82-30.425 22.933-33.823-3.559-5.739-5.665-12.824-5.665-20.496 0-17.022 10.355-31.165 23.997-34.072a40.646 40.646 0 0 1-1.193-9.801c0-15.259 8.323-28.204 19.874-32.817a25.011 25.011 0 0 0-9.315-1.812c-16.12 0-29.188 15.504-29.188 34.629 0 3.405.421 6.692 1.193 9.801-13.642 2.907-23.997 17.05-23.997 34.072 0 7.671 2.106 14.756 5.665 20.496-13.113 3.398-22.933 17.247-22.933 33.823 0 19.125 13.068 34.629 29.188 34.629h18.63c-16.121 0-29.189-15.504-29.189-34.629z"/><path class="st21" d="M414.33 310.466c-1.964 2.33-5.149 2.33-7.113 0l-19.322-22.924a6.157 6.157 0 0 1-1.153-2.138c-1.541 2.341-1.408 5.73.408 7.885l19.322 22.924c1.964 2.33 5.149 2.33 7.113 0 1.436-1.704 1.818-4.181 1.153-6.301a5.888 5.888 0 0 1-.408.554z"/><path class="st19" d="M413.048 402.063h-.817a4.621 4.621 0 0 1-4.621-4.621V274.638a4.621 4.621 0 0 1 4.621-4.621h.817a4.621 4.621 0 0 1 4.621 4.621v122.804a4.62 4.62 0 0 1-4.621 4.621z"/><path class="st19" d="M411.985 351.721c-1.964-2.33-1.964-6.109 0-8.439l19.322-22.924c1.964-2.33 5.149-2.33 7.113 0 1.964 2.33 1.964 6.109 0 8.439l-19.322 22.924c-1.964 2.331-5.149 2.331-7.113 0z"/><path class="st17" d="M411.709 396.096V275.984c0-2.429 1.225-4.515 2.98-5.446a4.354 4.354 0 0 0-2.049-.521c-2.778 0-5.03 2.672-5.03 5.967v120.113c0 3.296 2.252 5.967 5.03 5.967a4.35 4.35 0 0 0 2.049-.521c-1.755-.932-2.98-3.018-2.98-5.447z"/><path class="st17" d="m413.103 347.703 19.322-22.924c1.964-2.33 5.149-2.33 7.113 0 .116.137.223.281.326.427.153-1.729-.326-3.523-1.443-4.848-1.964-2.33-5.149-2.33-7.113 0l-19.322 22.924c-1.849 2.193-1.956 5.668-.326 8.012.116-1.312.596-2.586 1.443-3.591z"/><path class="st8" d="M462.181 474.015H79.028c-13.807 0-25-11.193-25-25v-4.759c0-35.899 29.101-65 65-65h303.154c35.898 0 65 29.101 65 65v4.759c-.001 13.807-11.193 25-25.001 25z"/><path class="st9" d="M105.349 468.883v-2.38c0-36.847 29.871-66.718 66.718-66.718h296.514c-12.141-12.645-29.204-20.529-48.118-20.529H120.746c-36.847 0-66.718 29.871-66.718 66.718v2.38c0 14.172 11.489 25.661 25.661 25.661h26.175a25.758 25.758 0 0 1-.515-5.132z"/><path class="st11" d="M135.606 334.116c3.356-5.413 5.342-12.095 5.342-19.33 0-16.791-10.682-30.615-24.423-32.447a38.309 38.309 0 0 0 1.141-9.309c0-18.037-12.325-32.659-27.528-32.659S62.61 254.993 62.61 273.03c0 3.211.397 6.311 1.125 9.243-12.866 2.742-22.632 16.08-22.632 32.133 0 7.235 1.986 13.917 5.343 19.33-12.367 3.205-21.628 16.266-21.628 31.899 0 18.037 12.325 32.659 27.528 32.659h73.152c1.372.25 2.777.379 4.208.379 15.203 0 27.528-14.622 27.528-32.659 0-15.632-9.261-28.692-21.628-31.898z"/><path class="st17" d="M91.917 349.485c-1.853 2.198-4.856 2.198-6.709 0l-18.223-21.62c-1.853-2.198-1.853-5.761 0-7.959 1.853-2.198 4.856-2.198 6.709 0l18.223 21.62c1.853 2.198 1.853 5.761 0 7.959z"/><path class="st8" d="M42.388 365.636c0-15.633 9.261-28.694 21.628-31.899-3.356-5.413-5.343-12.095-5.343-19.33 0-16.053 9.766-29.392 22.632-32.133a38.34 38.34 0 0 1-1.125-9.243c0-14.391 7.849-26.599 18.743-30.95a23.602 23.602 0 0 0-8.785-1.709c-15.203 0-27.528 14.622-27.528 32.659 0 3.211.397 6.311 1.125 9.243-12.866 2.742-22.632 16.08-22.632 32.133 0 7.235 1.986 13.917 5.343 19.33-12.367 3.205-21.628 16.266-21.628 31.899 0 18.037 12.325 32.659 27.528 32.659h17.57c-15.203 0-27.528-14.622-27.528-32.659z"/><path class="st21" d="M92.62 344.065c-1.853 2.198-4.856 2.198-6.709 0l-18.223-21.62a5.823 5.823 0 0 1-1.088-2.016c-1.454 2.208-1.328 5.404.385 7.436l18.223 21.62c1.853 2.198 4.856 2.198 6.709 0 1.355-1.607 1.714-3.943 1.088-5.943a5.453 5.453 0 0 1-.385.523z"/><path class="st19" d="M91.148 430.452h-.244a4.621 4.621 0 0 1-4.621-4.621V310.539a4.621 4.621 0 0 1 4.621-4.621h.244a4.621 4.621 0 0 1 4.621 4.621v115.292a4.62 4.62 0 0 1-4.621 4.621z"/><path class="st19" d="M90.409 382.974c-1.853-2.198-1.853-5.761 0-7.959l18.223-21.62c1.853-2.198 4.856-2.198 6.709 0 1.853 2.198 1.853 5.761 0 7.959l-18.223 21.62c-1.853 2.198-4.857 2.198-6.709 0z"/><path class="st17" d="M90.148 424.825v-113.28c0-2.291 1.155-4.258 2.811-5.136a4.11 4.11 0 0 0-1.933-.491c-2.62 0-4.744 2.52-4.744 5.628v113.28c0 3.108 2.124 5.628 4.744 5.628a4.11 4.11 0 0 0 1.933-.491c-1.656-.881-2.811-2.848-2.811-5.138z"/><path class="st17" d="m91.463 379.184 18.223-21.62c1.852-2.198 4.856-2.198 6.708 0 .109.129.211.265.307.403.145-1.631-.308-3.322-1.361-4.572-1.852-2.198-4.856-2.198-6.708 0l-18.223 21.62c-1.743 2.068-1.845 5.345-.307 7.556.109-1.237.562-2.439 1.361-3.387z"/><path class="st11" d="M225.11 358.794c3.356-5.413 5.342-12.095 5.342-19.33 0-16.791-10.682-30.615-24.423-32.447a38.309 38.309 0 0 0 1.141-9.309c0-18.037-12.325-32.659-27.528-32.659s-27.528 14.622-27.528 32.659c0 3.211.397 6.311 1.125 9.243-12.866 2.742-22.632 16.08-22.632 32.133 0 7.235 1.986 13.917 5.343 19.33-12.367 3.205-21.628 16.266-21.628 31.899 0 18.037 12.325 32.659 27.528 32.659h73.152c1.372.25 2.777.379 4.208.379 15.203 0 27.528-14.622 27.528-32.659 0-15.632-9.261-28.693-21.628-31.898z"/><path class="st17" d="M181.422 374.163c-1.853 2.198-4.856 2.198-6.709 0l-18.223-21.62c-1.853-2.198-1.853-5.761 0-7.959 1.852-2.198 4.856-2.198 6.709 0l18.223 21.62c1.852 2.198 1.852 5.761 0 7.959z"/><path class="st8" d="M131.893 390.314c0-15.633 9.261-28.694 21.628-31.899-3.356-5.413-5.343-12.095-5.343-19.33 0-16.053 9.766-29.392 22.632-32.133a38.34 38.34 0 0 1-1.125-9.243c0-14.391 7.849-26.599 18.743-30.95a23.602 23.602 0 0 0-8.785-1.709c-15.203 0-27.528 14.622-27.528 32.659 0 3.211.397 6.311 1.125 9.243-12.866 2.742-22.632 16.08-22.632 32.133 0 7.235 1.986 13.917 5.343 19.33-12.367 3.205-21.628 16.266-21.628 31.899 0 18.037 12.325 32.659 27.528 32.659h17.57c-15.203 0-27.528-14.622-27.528-32.659z"/><path class="st21" d="M182.125 368.743c-1.853 2.198-4.856 2.198-6.709 0l-18.223-21.62a5.823 5.823 0 0 1-1.088-2.016c-1.454 2.208-1.328 5.404.385 7.436l18.223 21.62c1.853 2.198 4.856 2.198 6.709 0 1.355-1.607 1.714-3.943 1.088-5.943a5.453 5.453 0 0 1-.385.523z"/><path class="st19" d="M180.653 455.13h-.244a4.621 4.621 0 0 1-4.621-4.621V335.216a4.621 4.621 0 0 1 4.621-4.621h.244a4.621 4.621 0 0 1 4.621 4.621v115.292a4.621 4.621 0 0 1-4.621 4.622z"/><path class="st19" d="M179.913 407.652c-1.853-2.198-1.853-5.761 0-7.959l18.223-21.62c1.853-2.198 4.856-2.198 6.709 0 1.853 2.198 1.853 5.761 0 7.959l-18.223 21.62c-1.853 2.198-4.857 2.198-6.709 0z"/><path class="st17" d="M179.652 449.502v-113.28c0-2.291 1.155-4.258 2.811-5.136a4.11 4.11 0 0 0-1.933-.491c-2.62 0-4.744 2.52-4.744 5.628v113.28c0 3.108 2.124 5.628 4.744 5.628a4.11 4.11 0 0 0 1.933-.491c-1.655-.88-2.811-2.847-2.811-5.138z"/><path class="st17" d="m180.967 403.862 18.223-21.62c1.852-2.198 4.856-2.198 6.708 0 .109.129.211.265.307.403.145-1.631-.308-3.322-1.361-4.572-1.852-2.198-4.856-2.198-6.708 0l-18.223 21.62c-1.743 2.068-1.845 5.345-.307 7.556.11-1.237.562-2.439 1.361-3.387z"/><path d="M442.512 98.435h-8.837c-3.663-12.349-15.09-21.36-28.627-21.36-4.153 0-8.107.85-11.701 2.382.212-1.595.324-3.222.324-4.874 0-20.212-16.385-36.597-36.597-36.597-19.401 0-35.273 15.097-36.516 34.183a32.727 32.727 0 0 0-7.054-.773c-18.024 0-32.635 14.611-32.635 32.635 0 17.967 14.52 32.538 32.465 32.63v.14h129.178c10.594 0 19.183-8.589 19.183-19.183 0-10.595-8.588-19.183-19.183-19.183z" style="fill:#fff4c1"/><path d="M321.926 104.03c0-18.024 14.611-32.635 32.635-32.635 2.423 0 4.781.272 7.054.773.756-11.601 6.922-21.721 15.995-27.88a36.428 36.428 0 0 0-20.536-6.303c-19.4 0-35.273 15.097-36.516 34.183a32.713 32.713 0 0 0-7.054-.773c-18.024 0-32.635 14.611-32.635 32.635 0 17.967 14.52 32.538 32.465 32.63v.14h41.057v-.14c-17.945-.092-32.465-14.663-32.465-32.63z" style="fill:#fce575"/><circle class="st19" cx="206.232" cy="114.853" r="15.322"/><circle class="st19" cx="168.955" cy="150.973" r="15.322"/><circle class="st9" cx="133.841" cy="450.909" r="15.322"/><circle class="st23" cx="256" cy="305.917" r="15.322"/><circle class="st23" cx="288.693" cy="342.936" r="15.322"/><path class="st11" d="M464.576 359.47a6 6 0 0 1-5.232-8.93c12.604-22.54-4.037-32.938-4.752-33.369a6 6 0 1 1 6.204-10.271c9.489 5.73 23.586 23.451 9.021 49.498a5.997 5.997 0 0 1-5.241 3.072z"/><path d="M425.198 111.794a6.002 6.002 0 0 1-5.832-4.611c-3.806-15.979-20.101-13.684-20.793-13.575a6.001 6.001 0 0 1-1.812-11.863c9.637-1.47 29.208 1.367 34.279 22.659a6 6 0 0 1-5.842 7.39z" style="fill:#fcf9de"/><path d="M372.85 227.629a6 6 0 0 1-5.993-6.399c.776-11.672-13.576-23.854-19.172-27.563a6 6 0 1 1 6.629-10.002c1.059.701 25.909 17.423 24.517 38.361a6 6 0 0 1-5.981 5.603z" style="fill:#ffd551"/></svg>