<svg xmlns="http://www.w3.org/2000/svg" viewBox="0 0 64 64"><g data-name="28-pure nature"><path d="M63 57v4c-2.58 0-2.58 2-5.17 2s-2.58-2-5.16-2-2.59 2-5.17 2-2.58-2-5.17-2-2.58 2-5.16 2-2.59-2-5.17-2-2.58 2-5.17 2-2.58-2-5.16-2-2.59 2-5.17 2-2.58-2-5.17-2-2.58 2-5.16 2S3.58 61 1 61v-4c2.58 0 2.58 2 5.17 2s2.58-2 5.16-2 2.59 2 5.17 2 2.58-2 5.17-2 2.58 2 5.16 2 2.59-2 5.17-2 2.58 2 5.17 2 2.58-2 5.16-2 2.59 2 5.17 2 2.58-2 5.17-2 2.58 2 5.16 2 2.59-2 5.17-2z" style="fill:#53d5e3"/><path d="M62.41 34.59A1.955 1.955 0 0 1 63 36a6.463 6.463 0 0 1-2.32 4.96c-5.13-.68-10.26 1.56-15.4.95-2.56-.29-5.03-1.41-7.58-1.7-3.83-.44-7.64 1-11.48.9-3.81-.1-7.61-1.71-11.36-.86-1.2.27-2.36.78-3.56.99-3.08.52-6.23-.9-9.3-.24l-.08.05A6.45 6.45 0 0 1 1 37.73V36a2.006 2.006 0 0 1 2-2h58a1.955 1.955 0 0 1 1.41.59z" style="fill:#85ee89"/><path d="M60 4a2 2 0 0 1 0 4h-4a2 2 0 0 1 0-4 2 2 0 0 1 4 0z" style="fill:#01cadb"/><path d="M60.68 40.96a6.39 6.39 0 0 1-1.26.83L37.87 52.56a13.558 13.558 0 0 1-11.43.34L4.92 43.68a6.424 6.424 0 0 1-3-2.63L2 41c3.07-.66 6.22.76 9.3.24 1.2-.21 2.36-.72 3.56-.99 3.75-.85 7.55.76 11.36.86 3.84.1 7.65-1.34 11.48-.9 2.55.29 5.02 1.41 7.58 1.7 5.14.61 10.27-1.63 15.4-.95z" style="fill:#8f8b81"/><path d="m46.2 21.76 3.5 7.38L52 34H32l-2.91-9.15 3.97-6.61a6.673 6.673 0 0 1 11.75.58z" style="fill:#28be77"/><path d="M31 6a2 2 0 0 1 0 4h-4a2 2 0 0 1 0-4 2 2 0 0 1 4 0z" style="fill:#01cadb"/><path d="M29.09 24.85 32 34H12l7.16-19.7a3.489 3.489 0 0 1 6.61.13z" style="fill:#48d999"/><circle cx="10" cy="10" r="5" style="fill:#ffdf64"/><path d="M38.177 30a4.7 4.7 0 0 1-4.357-2.765 4.154 4.154 0 0 1 .238-3.74l4.373-7.518a1.99 1.99 0 0 1 1.25-.913 6.728 6.728 0 0 0-.9-.064 6.655 6.655 0 0 0-5.72 3.24l-3.97 6.61L30.728 30 32 34h20l-1.893-4z" style="fill:#1f9e65"/><path d="M25.48 30a6 6 0 0 1-5.857-7.3l2.029-9.132a1.994 1.994 0 0 1 1.459-1.5A3.464 3.464 0 0 0 19.16 14.3L12 34h20l-1.272-4z" style="fill:#23b574"/><path d="M53.98 23.18c0-.06.02-.12.02-.18a4 4 0 0 0-7.8-1.24L49.634 29H53a2.991 2.991 0 0 0 .98-5.82z" style="fill:#01cadb"/><path d="M63 61v2h-5.17c2.59 0 2.59-2 5.17-2zM57.83 63H47.5c2.58 0 2.58-2 5.17-2s2.58 2 5.16 2zM47.5 63H37.17c2.58 0 2.58-2 5.16-2s2.59 2 5.17 2zM37.17 63H26.83c2.59 0 2.59-2 5.17-2s2.58 2 5.17 2z" style="fill:#01abba"/><path d="M26.83 63H16.5c2.58 0 2.58-2 5.17-2s2.58 2 5.16 2zM16.5 63H6.17c2.58 0 2.58-2 5.16-2s2.59 2 5.17 2zM6.17 63H1v-2c2.58 0 2.58 2 5.17 2zM60 7h-4a2 2 0 0 1-1.929-1.5A1.966 1.966 0 0 0 54 6a2.006 2.006 0 0 0 2 2h4a2.006 2.006 0 0 0 2-2 1.966 1.966 0 0 0-.071-.5A2 2 0 0 1 60 7z" style="fill:#01abba"/><path d="M62.41 34.59A1.955 1.955 0 0 0 61 34H3a2.006 2.006 0 0 0-2 2v1.73c0 .051.009.1.01.152 3.022-.278 6.1.83 9.121.358 1.3-.21 2.55-.72 3.847-.99 4.052-.85 8.159.76 12.276.86 4.15.1 8.267-1.34 12.406-.9 2.755.29 5.425 1.41 8.191 1.7 5.293.581 10.576-1.419 15.858-1.021A6.444 6.444 0 0 0 63 36a1.955 1.955 0 0 0-.59-1.41z" style="fill:#c6ff79"/><path d="M12.3 44.24c1.2-.21 2.36-.72 3.56-.99 3.75-.85 7.55.76 11.36.86 3.84.1 7.65-1.34 11.48-.9 2.55.29 5.02 1.41 7.58 1.7a29.535 29.535 0 0 0 7.987-.545l5.153-2.575a6.39 6.39 0 0 0 1.26-.83c-5.13-.68-10.26 1.56-15.4.95-2.56-.29-5.03-1.41-7.58-1.7-3.83-.44-7.64 1-11.48.9-3.81-.1-7.61-1.71-11.36-.86-1.2.27-2.36.78-3.56.99-3.08.52-6.23-.9-9.3-.24l-.08.05a6.424 6.424 0 0 0 3 2.63l.356.153c2.338.09 4.701.799 7.024.407z" style="fill:#b5b1a4"/><path d="M10 4a1 1 0 0 1-1-1V2a1 1 0 0 1 2 0v1a1 1 0 0 1-1 1zM10 19a1 1 0 0 1-1-1v-1a1 1 0 0 1 2 0v1a1 1 0 0 1-1 1zM18 11h-1a1 1 0 0 1 0-2h1a1 1 0 0 1 0 2zM3 11H2a1 1 0 0 1 0-2h1a1 1 0 0 1 0 2zM15 6a1 1 0 0 1-.707-1.707l1-1a1 1 0 1 1 1.414 1.414l-1 1A1 1 0 0 1 15 6zM4 17a1 1 0 0 1-.707-1.707l1-1a1 1 0 0 1 1.414 1.414l-1 1A1 1 0 0 1 4 17zM16 17a1 1 0 0 1-.707-.293l-1-1a1 1 0 0 1 1.414-1.414l1 1A1 1 0 0 1 16 17zM5 6a1 1 0 0 1-.707-.293l-1-1a1 1 0 0 1 1.414-1.414l1 1A1 1 0 0 1 5 6z" style="fill:#ffb844"/><path d="M52.67 57c-2.59 0-2.59 2-5.17 2s-2.58-2-5.17-2-2.58 2-5.16 2-2.59-2-5.17-2-2.58 2-5.17 2-2.58-2-5.16-2-2.59 2-5.17 2-2.58-2-5.17-2-2.58 2-5.16 2S3.58 57 1 57v2c2.58 0 2.58 2 5.17 2s2.58-2 5.16-2 2.59 2 5.17 2 2.58-2 5.17-2 2.58 2 5.16 2 2.59-2 5.17-2 2.58 2 5.17 2 2.58-2 5.16-2 2.59 2 5.17 2 2.58-2 5.17-2 2.58 2 5.16 2 2.59-2 5.17-2v-2c-2.58 0-2.58 2-5.17 2s-2.58-2-5.16-2z" style="fill:#89f2ff"/><ellipse cx="36.121" cy="50.75" rx=".574" ry=".413" transform="rotate(-44.98 36.122 50.751)" style="fill:#b5b1a4"/><ellipse cx="43.121" cy="46.75" rx=".574" ry=".413" transform="rotate(-44.98 43.121 46.75)" style="fill:#b5b1a4"/><ellipse cx="30.121" cy="51.75" rx=".574" ry=".413" transform="rotate(-44.98 30.121 51.75)" style="fill:#b5b1a4"/><ellipse cx="40.121" cy="49.75" rx=".413" ry=".574" style="fill:#b5b1a4"/><ellipse cx="45.121" cy="26.75" rx=".413" ry=".574" style="fill:#61edaf"/><ellipse cx="41.121" cy="28.75" rx=".413" ry=".574" style="fill:#61edaf"/><ellipse cx="39.121" cy="19.75" rx=".413" ry=".574" style="fill:#61edaf"/><ellipse cx="25.121" cy="26.75" rx=".413" ry=".574" style="fill:#61edaf"/><ellipse cx="25.121" cy="16.75" rx=".413" ry=".574" style="fill:#61edaf"/><ellipse cx="30.121" cy="45.75" rx=".413" ry=".574" style="fill:#b5b1a4"/><ellipse cx="23.121" cy="48.75" rx=".413" ry=".574" transform="rotate(-44.98 23.121 48.75)" style="fill:#b5b1a4"/><ellipse cx="16.121" cy="45.75" rx=".413" ry=".574" style="fill:#b5b1a4"/><ellipse cx="26.121" cy="47.75" rx=".413" ry=".574" style="fill:#b5b1a4"/><ellipse cx="38.375" cy="46.25" rx="1.719" ry="1.235" transform="rotate(-44.98 38.375 46.25)" style="fill:#b5b1a4"/><ellipse cx="19.375" cy="46.25" rx=".825" ry="1.148" style="fill:#b5b1a4"/><ellipse cx="43.375" cy="24.25" rx=".825" ry="1.148" style="fill:#61edaf"/><ellipse cx="27.375" cy="25.25" rx=".825" ry="1.148" style="fill:#61edaf"/><ellipse cx="22.375" cy="20.25" rx=".825" ry="1.148" style="fill:#61edaf"/><path d="M31 9h-4a2 2 0 0 1-1.929-1.5A1.966 1.966 0 0 0 25 8a2.006 2.006 0 0 0 2 2h4a2.006 2.006 0 0 0 2-2 1.966 1.966 0 0 0-.071-.5A2 2 0 0 1 31 9zM54 28h-1.7a2 2 0 0 1-1.828-1.188l-3.048-6.857A3.971 3.971 0 0 0 46.2 21.76L49.634 29H53a3 3 0 0 0 3-3 2 2 0 0 1-2 2z" style="fill:#01abba"/></g></svg>