<?xml version="1.0" encoding="iso-8859-1"?>
<!-- Generator: Adobe Illustrator 19.0.0, SVG Export Plug-In . SVG Version: 6.00 Build 0)  -->
<svg version="1.1" id="Layer_1" xmlns="http://www.w3.org/2000/svg" xmlns:xlink="http://www.w3.org/1999/xlink" x="0px" y="0px"
	 viewBox="0 0 406 406" style="enable-background:new 0 0 406 406;" xml:space="preserve">
<g>
	<path style="fill:#EB7830;" d="M347.44,374.497c-6.614,0-12.828-2.571-17.497-7.24L209.375,246.699l10.574-4.755
		c4.469-2.01,8.458-4.757,11.857-8.164c3.419-3.419,6.165-7.407,8.168-11.861l4.755-10.573l120.568,120.558
		c4.671,4.672,7.244,10.889,7.244,17.507c0,6.612-2.572,12.825-7.244,17.497l-0.404,0.394
		C360.229,371.942,354.033,374.497,347.44,374.497z"/>
	<path style="fill:#F5C525;" d="M203.51,245.49c-10.675,0-20.713-4.16-28.267-11.713c-12.118-12.118-16.468-49.992-17.776-65.714
		l-0.783-9.42l9.419,0.784c15.719,1.309,53.587,5.66,65.713,17.785c8.624,8.623,12.803,20.532,11.465,32.673
		c-0.997,9.112-4.96,17.373-11.459,23.886c-6.499,6.499-14.758,10.467-23.891,11.479C206.366,245.412,204.9,245.49,203.51,245.49z"
		/>
	<path style="fill:#EFEFEF;" d="M203,398C95.477,398,8,310.524,8,203C8,95.528,95.475,8.052,202.996,8
		C310.314,8,397.791,95.309,398,202.625c0.021,10.925-0.874,21.906-2.659,32.638c-1.224,7.31-7.465,12.607-14.841,12.607
		c-2.047,0-4.056-0.42-5.969-1.249c-14.387-6.246-29.713-9.411-45.562-9.411h-0.73c-14.541,0.082-28.783,2.917-42.288,8.428
		l-4.921,2.008l-37.635-37.636l0.097-3.444c0.312-11.089-3.837-21.516-11.68-29.358c-12.34-12.34-54.428-17.423-74.958-18.386
		c1.352,28.596,7.679,64.245,18.39,74.95c7.55,7.559,17.586,11.719,28.265,11.719c0.315,0,0.623-0.017,0.938-0.031l3.531-0.165
		l32.976,32.989l-4.108,5.542c-14.685,19.808-22.471,43.255-22.516,67.81c-0.01,9.416,1.116,18.773,3.346,27.808
		c1.116,4.486,0.111,9.169-2.76,12.833c-2.837,3.634-7.111,5.725-11.716,5.725H203V398z M155.77,306.981
		c-5.921,0-11.717,2.4-15.903,6.587c-4.196,4.181-6.597,9.978-6.597,15.913c0,5.927,2.405,11.73,6.597,15.924
		c4.184,4.169,9.984,6.566,15.903,6.566s11.718-2.399,15.908-6.582c4.188-4.188,6.592-9.988,6.592-15.908
		c0-5.929-2.401-11.723-6.587-15.894C167.481,309.385,161.684,306.981,155.77,306.981z M77.65,230.651
		c-2.873,0-5.694,0.547-8.383,1.625c-11.5,4.629-17.108,17.765-12.492,29.277c3.45,8.565,11.653,14.107,20.895,14.107
		c2.888,0,5.703-0.545,8.368-1.619c5.582-2.245,9.953-6.524,12.316-12.055c2.356-5.516,2.42-11.631,0.181-17.22
		C95.092,236.194,86.894,230.651,77.65,230.651z M335.55,154.82c-5.913,0-11.715,2.406-15.918,6.602
		c-4.183,4.175-6.582,9.97-6.582,15.898c0,5.941,2.397,11.738,6.577,15.903c4.196,4.196,9.996,6.597,15.923,6.597
		c5.928,0,11.723-2.398,15.898-6.582c4.199-4.191,6.602-9.989,6.602-15.918c0-5.921-2.404-11.722-6.597-15.913
		C347.256,157.225,341.456,154.82,335.55,154.82z M61.189,134.525c-2.506,5.33-2.829,11.33-0.907,16.896
		c1.957,5.685,6.004,10.26,11.401,12.888c3.104,1.516,6.419,2.282,9.857,2.282c8.68,0,16.435-4.846,20.239-12.646
		c5.431-11.156,0.779-24.652-10.371-30.08c-3.098-1.509-6.411-2.273-9.848-2.273c-8.685,0-16.437,4.842-20.234,12.636
		L61.189,134.525z M273.02,65.2c-7.906,0-15.087,4.016-19.21,10.74c-6.473,10.573-3.135,24.459,7.444,30.951
		c3.532,2.163,7.588,3.309,11.726,3.309c7.899,0,15.081-4.02,19.21-10.753c3.133-5.124,4.09-11.165,2.69-17.001
		c-1.399-5.84-4.997-10.789-10.132-13.937C281.214,66.346,277.157,65.2,273.02,65.2z M164.83,51c-2.157,0-4.307,0.312-6.392,0.925
		c-5.757,1.703-10.513,5.548-13.379,10.824c-2.871,5.277-3.515,11.359-1.815,17.132C146.045,89.369,154.915,96,164.81,96
		c2.156,0,4.307-0.312,6.391-0.925c5.757-1.701,10.511-5.546,13.379-10.824c2.875-5.286,3.521-11.365,1.818-17.121
		C183.587,57.634,174.718,51,164.83,51z"/>
	<path style="fill:#3E81C8;" d="M155.77,351.971c-5.921,0-11.719-2.392-15.906-6.563c-4.195-4.195-6.594-9.997-6.594-15.928
		c0-5.926,2.399-11.725,6.583-15.907c4.189-4.189,9.991-6.593,15.917-6.593c5.919,0,11.72,2.406,15.917,6.603
		c4.184,4.184,6.583,9.978,6.583,15.897c0,5.925-2.399,11.722-6.583,15.906C167.482,349.575,161.685,351.971,155.77,351.971z"/>
	<path style="fill:#EB7830;" d="M77.67,275.66c-9.249,0-17.45-5.542-20.894-14.119c-2.238-5.564-2.168-11.68,0.198-17.216
		c2.364-5.533,6.734-9.812,12.305-12.049c2.659-1.076,5.482-1.626,8.371-1.626c9.246,0,17.444,5.548,20.886,14.133
		c2.236,5.574,2.169,11.687-0.188,17.208c-2.361,5.53-6.734,9.811-12.315,12.053C83.359,275.116,80.546,275.66,77.67,275.66z"/>
	<path style="fill:#3E81C8;" d="M81.54,166.59c-3.446,0-6.763-0.769-9.859-2.285c-5.391-2.618-9.45-7.197-11.406-12.881
		c-1.938-5.644-1.585-11.689,0.986-17.049l0.161-0.361l0.101-0.196c3.871-7.542,11.549-12.228,20.038-12.228
		c3.447,0,6.765,0.77,9.861,2.287c5.379,2.619,9.432,7.198,11.391,12.884c1.958,5.682,1.588,11.783-1.04,17.181
		C97.973,161.743,90.221,166.59,81.54,166.59z"/>
	<path style="fill:#EB7830;" d="M164.81,96c-9.904,0-18.772-6.634-21.565-16.133c-1.704-5.76-1.063-11.844,1.808-17.12
		c2.875-5.285,7.634-9.129,13.402-10.823c2.067-0.611,4.217-0.924,6.375-0.924c9.888,0,18.754,6.63,21.561,16.122
		c1.707,5.771,1.066,11.855-1.804,17.131c-2.865,5.266-7.617,9.106-13.382,10.817C169.118,95.688,166.968,96,164.81,96z"/>
	<path style="fill:#3E81C8;" d="M272.98,110.2c-4.122,0-8.172-1.141-11.713-3.299c-10.596-6.51-13.926-20.393-7.448-30.962
		c4.115-6.723,11.294-10.739,19.201-10.739c4.13,0,8.188,1.146,11.734,3.314c5.133,3.144,8.728,8.091,10.126,13.935
		c1.397,5.85,0.443,11.886-2.688,16.998C288.048,106.186,280.869,110.2,272.98,110.2z"/>
	<path style="fill:#EB7830;" d="M335.55,199.82c-5.941,0-11.747-2.407-15.927-6.604c-4.169-4.154-6.573-9.956-6.573-15.896
		c0-5.936,2.404-11.734,6.595-15.908c4.185-4.186,9.986-6.592,15.905-6.592s11.717,2.403,15.907,6.593
		c4.19,4.188,6.593,9.986,6.593,15.907c0,5.925-2.403,11.727-6.593,15.917C347.273,197.421,341.475,199.82,335.55,199.82z"/>
	<g>
		<path style="fill:#231F20;" d="M177.33,307.92c-5.68-5.68-13.54-8.94-21.56-8.94c-8.03,0-15.89,3.26-21.56,8.93
			c-5.69,5.67-8.94,13.53-8.94,21.57c0,8.03,3.25,15.89,8.94,21.58c5.68,5.66,13.53,8.91,21.56,8.91c8.02,0,15.88-3.25,21.56-8.92
			c5.68-5.68,8.94-13.54,8.94-21.57C186.27,321.44,183.01,313.58,177.33,307.92z M166.03,339.73c-2.71,2.7-6.45,4.24-10.26,4.24
			c-3.82,0-7.56-1.54-10.26-4.23c-2.7-2.7-4.24-6.44-4.24-10.26s1.54-7.55,4.24-10.25c2.7-2.7,6.44-4.25,10.26-4.25
			c3.81,0,7.55,1.55,10.26,4.26c2.69,2.69,4.24,6.42,4.24,10.24S168.72,337.04,166.03,339.73z"/>
		<path style="fill:#231F20;" d="M105.96,241.79c-4.67-11.63-15.78-19.14-28.31-19.14c-3.9,0-7.72,0.74-11.36,2.2
			c-15.6,6.28-23.2,24.07-16.94,39.68c4.68,11.62,15.79,19.13,28.32,19.13c3.91,0,7.74-0.74,11.36-2.2
			c7.56-3.04,13.48-8.84,16.68-16.33S108.99,249.35,105.96,241.79z M90.99,258.85c-1.52,3.56-4.33,6.32-7.94,7.77
			c-1.72,0.69-3.53,1.04-5.38,1.04c-5.96,0-11.25-3.57-13.47-9.1c-2.98-7.41,0.64-15.88,8.06-18.86c1.73-0.7,3.54-1.05,5.39-1.05
			c5.96,0,11.24,3.57,13.46,9.11C92.55,251.35,92.51,255.29,90.99,258.85z"/>
		<path style="fill:#231F20;" d="M94.91,116.67c-4.21-2.05-8.7-3.08-13.35-3.08c-11.76,0-22.28,6.56-27.43,17.14
			c-0.07,0.13-0.13,0.26-0.18,0.39c-3.4,7.23-3.84,15.35-1.23,22.91c2.65,7.7,8.15,13.91,15.46,17.47c4.2,2.05,8.69,3.09,13.36,3.09
			c11.76,0,22.27-6.56,27.43-17.14C116.33,142.33,110.03,124.03,94.91,116.67z M94.58,150.44c-2.45,5.03-7.45,8.15-13.04,8.15
			c-2.21,0-4.34-0.49-6.34-1.47c-3.48-1.69-6.1-4.64-7.36-8.3c-1.26-3.67-1.02-7.6,0.68-11.08c0.04-0.09,0.08-0.18,0.12-0.27
			c2.5-4.87,7.43-7.88,12.92-7.88c2.21,0,4.34,0.49,6.34,1.47C95.09,134.56,98.08,143.25,94.58,150.44z"/>
		<path style="fill:#231F20;" d="M302.66,80.58c-1.9-7.93-6.78-14.63-13.73-18.89c-4.8-2.94-10.3-4.49-15.91-4.49
			c-10.71,0-20.44,5.44-26.03,14.56c-8.78,14.34-4.26,33.15,10.08,41.95c4.8,2.94,10.3,4.49,15.91,4.49
			c10.7,0,20.43-5.44,26.03-14.57C303.26,96.68,304.56,88.5,302.66,80.58z M285.37,95.27c-2.67,4.34-7.3,6.93-12.39,6.93
			c-2.66,0-5.27-0.74-7.55-2.13c-6.82-4.19-8.97-13.13-4.79-19.95c2.65-4.33,7.28-6.92,12.38-6.92c2.66,0,5.27,0.74,7.56,2.14
			c3.3,2.02,5.62,5.21,6.52,8.97C288,88.08,287.39,91.97,285.37,95.27z"/>
		<path style="fill:#231F20;" d="M194.07,64.86C190.26,51.99,178.24,43,164.83,43c-2.92,0-5.83,0.42-8.65,1.25
			c-7.81,2.31-14.26,7.52-18.15,14.68c-3.89,7.15-4.76,15.4-2.46,23.21c3.8,12.87,15.82,21.86,29.24,21.86
			c2.92,0,5.83-0.42,8.65-1.25c7.82-2.31,14.26-7.52,18.15-14.68C195.5,80.92,196.38,72.67,194.07,64.86z M177.56,80.43
			c-1.85,3.4-4.92,5.87-8.63,6.97c-1.35,0.4-2.74,0.6-4.12,0.6c-6.37,0-12.09-4.27-13.89-10.39c-1.1-3.72-0.69-7.64,1.16-11.04
			c1.85-3.4,4.92-5.88,8.63-6.97c1.35-0.4,2.73-0.6,4.12-0.6c6.37,0,12.08,4.27,13.89,10.39C179.82,73.11,179.41,77.03,177.56,80.43
			z"/>
		<path style="fill:#231F20;" d="M357.11,155.75c-5.69-5.67-13.55-8.93-21.56-8.93c-8.02,0-15.88,3.26-21.57,8.94
			c-5.68,5.67-8.93,13.54-8.93,21.56c0,8.05,3.25,15.91,8.93,21.57c5.68,5.68,13.54,8.93,21.57,8.93c8.02,0,15.89-3.25,21.56-8.93
			c5.68-5.67,8.94-13.54,8.94-21.57C366.05,169.3,362.79,161.43,357.11,155.75z M345.8,187.58c-2.7,2.7-6.44,4.24-10.25,4.24
			c-3.82,0-7.56-1.54-10.26-4.25c-2.7-2.69-4.24-6.42-4.24-10.25c0-3.81,1.54-7.55,4.24-10.24c2.71-2.71,6.45-4.26,10.26-4.26
			s7.55,1.55,10.25,4.25s4.25,6.44,4.25,10.25C350.05,181.14,348.5,184.88,345.8,187.58z"/>
		<path style="fill:#231F20;" d="M202.92,0C148.71,0.03,97.75,21.15,59.43,59.49S0,148.8,0,203c0,111.94,91.07,203,203,203h0.21
			c0,0,0,0,0.01,0c7.07,0,13.64-3.21,18.01-8.81c4.38-5.61,5.92-12.78,4.22-19.67c-2.08-8.42-3.13-17.12-3.12-25.87
			c0.04-22.71,7.29-43.81,19.54-61.14l82.41,82.41c6.39,6.38,14.77,9.57,23.16,9.57s16.77-3.19,23.16-9.57l0.35-0.36
			c6.19-6.18,9.59-14.41,9.59-23.15c0-8.75-3.4-16.98-9.59-23.16l-75.58-75.59c10.38-3.47,21.46-5.38,32.96-5.45h0.64
			c14.72,0,28.98,2.94,42.37,8.75c2.93,1.26,6.01,1.91,9.16,1.91c11.3,0,20.86-8.11,22.73-19.29c1.86-11.16,2.79-22.59,2.77-33.97
			C405.79,90.89,314.72,0,202.92,0z M359.64,337.56c3.16,3.16,4.9,7.37,4.9,11.85c0,4.47-1.74,8.68-4.9,11.84l-0.36,0.35
			c-6.53,6.53-17.15,6.53-23.68,0L223.23,249.24c5.27-2.37,10.12-5.68,14.24-9.81c4.12-4.12,7.43-8.96,9.8-14.23L359.64,337.56z
			 M207.05,237.3c-1.17,0.12-2.36,0.19-3.54,0.19c-8.54,0-16.57-3.33-22.61-9.37c-8.54-8.54-13.63-38.72-15.46-60.72
			c21.99,1.83,52.17,6.92,60.72,15.47c6.9,6.9,10.24,16.43,9.17,26.14c-0.8,7.31-3.98,13.91-9.17,19.11
			C220.96,233.32,214.35,236.49,207.05,237.3z M387.45,233.95c-0.65,3.88-3.99,5.92-6.95,5.92c-0.95,0-1.89-0.2-2.79-0.59
			c-15.41-6.69-31.81-10.07-48.74-10.07h-0.73c-16,0.09-31.29,3.3-45.31,9.02l-31.44-31.44c0.37-13.17-4.61-25.83-14.02-35.24
			c-17.32-17.32-73.85-20.42-80.24-20.72c-2.25-0.1-4.44,0.75-6.03,2.34s-2.44,3.78-2.33,6.03c0.3,6.38,3.4,62.92,20.72,80.23
			c9.06,9.07,21.11,14.06,33.92,14.06c0.44,0,0.87-0.02,1.31-0.04l25.6,25.61c-15.08,20.34-24.04,45.45-24.09,72.56
			c-0.01,10.06,1.19,20.06,3.58,29.74c0.52,2.09,0.05,4.27-1.29,5.98c-1.32,1.69-3.3,2.66-5.42,2.66H203C99.89,390,16,306.12,16,203
			C16,99.93,99.85,16.05,203,16c102.91,0,186.8,83.73,187,186.64C390.02,213.13,389.16,223.67,387.45,233.95z"/>
	</g>
</g>
<g>
</g>
<g>
</g>
<g>
</g>
<g>
</g>
<g>
</g>
<g>
</g>
<g>
</g>
<g>
</g>
<g>
</g>
<g>
</g>
<g>
</g>
<g>
</g>
<g>
</g>
<g>
</g>
<g>
</g>
</svg>
