<svg xmlns="http://www.w3.org/2000/svg" xml:space="preserve" width="2048" height="2048" style="shape-rendering:geometricPrecision;text-rendering:geometricPrecision;image-rendering:optimizeQuality;fill-rule:evenodd;clip-rule:evenodd"><defs><clipPath id="id0"><path d="M1024-.001c565.539 0 1024 458.462 1024 1024 0 565.539-458.462 1024-1024 1024-565.539 0-1024-458.462-1024-1024 0-565.54 458.462-1024 1024-1024z"/></clipPath><style>.fil1{fill:#039be5}</style></defs><g id="Layer_x0020_1"><path d="M1024-.001c565.539 0 1024 458.462 1024 1024 0 565.539-458.462 1024-1024 1024-565.539 0-1024-458.462-1024-1024 0-565.54 458.462-1024 1024-1024z" style="fill:#4fc3f7"/><g style="clip-path:url(#id0)"><g id="_466502096"><path id="_3892831121" class="fil1" d="m1583.96 1023.78 1135.88 1135.89v.21L1583.96 1024z"/><path id="_389288656" class="fil1" d="M885.785 487.276 2021.67 1623.16l1.9 2.12 1.82 2.28 1.76 2.43L891.27 494.112l-1.756-2.436-1.829-2.279z"/><path id="_389286280" class="fil1" d="M891.27 494.112 2027.15 1629.99l254.54 418.1L1145.81 912.21z"/><path id="_389279992" class="fil1" d="m1182.51 1115.67 1135.88 1135.88-3.1.08-2.99.23-2.88.4-2.78.55-2.67.7-2.56.87-2.46 1.02-2.34 1.18-2.24 1.34-2.13 1.49-2.03 1.65-1.92 1.81-1.81 1.96-1.7 2.13-1.6 2.27-1.49 2.44-1135.88-1135.88 1.49-2.44 1.6-2.28 1.7-2.12 1.81-1.96 1.92-1.81 2.02-1.65 2.14-1.5 2.24-1.33 2.34-1.18 2.46-1.02 2.56-.87 2.67-.71 2.78-.54 2.88-.4 2.99-.23z"/><path id="_389300056" class="fil1" d="M891.601 1120.09 2027.48 2255.97l-.76-.65-.81-.6-.87-.55-.92-.5-.98-.45-1.03-.39-1.08-.34-1.14-.29-1.19-.23-1.25-.18-1.29-.14-1.36-.07-1.41-.03L877.514 1115.67l1.406.02 1.354.08 1.299.13 1.245.19 1.192.23 1.137.29 1.084.34 1.03.39.976.45.922.49.867.55.815.61z"/><path id="_389303104" class="fil1" d="M574.797 1189.45 1710.68 2325.33l-1.72 1.89-2.21 1.86-2.66 1.81-3.06 1.75-3.44 1.69-3.77 1.61-4.07 1.53-4.33 1.43-4.56 1.33-4.74 1.22-4.88 1.1-5 .97-5.07.82-5.11.68-5.11.52-5.07.34-4.99.18-4.88-.02-4.72-.22-4.54-.42-4.31-.63-4.05-.86-3.75-1.1-3.41-1.34-3.04-1.59-2.62-1.86L469.689 1202.14l2.622 1.86 3.036 1.59 3.41 1.34 3.748 1.09 4.049.87 4.313.63 4.538.42 4.727.22 4.878.01 4.992-.17 5.068-.35 5.106-.51 5.108-.68 5.073-.82 4.998-.97 4.888-1.1 4.739-1.22 4.555-1.33 4.331-1.44 4.07-1.52 3.772-1.62 3.438-1.68 3.064-1.76 2.655-1.8 2.208-1.86z"/><path id="_389279944" class="fil1" d="M854.577 1574 1990.46 2709.89h-82.55L772.025 1574z"/><path id="_389301880" class="fil1" d="M772.025 1574 1907.91 2709.89l-1.13-.03-1.1-.08-1.05-.13-1.03-.18-.98-.24-.95-.29-.92-.34-.88-.39-.84-.45-.8-.5-.78-.55-.73-.6L760.838 1570.23l.735.6.771.55.807.5.842.44.879.4.914.34.951.29.986.23 1.022.19 1.058.13 1.092.08z"/><path id="_389294560" class="fil1" d="M573.074 856.658 1708.95 1992.54l1.73 1.9L574.797 858.553z"/><path id="_389302360" class="fil1" d="M655.063 1115.67 1790.94 2251.55l-1.56.02-1.54.05-1.53.09-1.49.12-1.48.16-1.45.19-1.43.23-1.41.26-1.39.3-1.36.33-1.34.36-1.32.4-1.3.44-1.27.47-1.25.51-1.23.54-1.21.58-1.18.61-1.17.64-1.14.69-1.11.71-1.1.75-1.07.79-1.05.82-1.03.85-1 .89-.99.93-.96.96-.94 1-.91 1.03-.89 1.06-.88 1.1L616.082 1133.55l.872-1.1.893-1.07.916-1.03.938-.99.962-.96.982-.93 1.005-.89 1.028-.85 1.05-.82 1.072-.79 1.095-.75 1.118-.72 1.139-.68 1.163-.64 1.184-.62 1.206-.57 1.23-.54 1.252-.51 1.273-.47 1.297-.44 1.318-.4 1.342-.37 1.364-.33 1.385-.29 1.409-.27 1.431-.22 1.454-.2 1.475-.15 1.499-.13 1.521-.08 1.542-.05z"/><path id="_389300728" class="fil1" d="M616.082 1133.55 1751.96 2269.43l-41.28 55.9L574.797 1189.45z"/><path id="_389283568" class="fil1" d="M574.797 858.553 1710.68 1994.44l41.28 55.89L616.082 914.451z"/><path id="_389309872" class="fil1" d="m891.27 1553.87 1135.88 1135.88-1.76 2.44-1.82 2.28-1.9 2.12-1.98 1.97-2.04 1.81-2.11 1.65-2.19 1.49-2.25 1.34-2.33 1.18-2.4 1.02-2.48.87-2.54.71-2.61.55-2.69.39-2.76.24-2.83.08L854.577 1574l2.831-.07 2.759-.24 2.687-.39 2.615-.55 2.544-.71 2.472-.87 2.401-1.02 2.328-1.18 2.257-1.34 2.186-1.49 2.115-1.66 2.042-1.8 1.971-1.97 1.9-2.12 1.829-2.28z"/><path id="_389305696" class="fil1" d="M616.082 914.451 1751.96 2050.33l.87 1.1.9 1.07.91 1.03.94.99.96.96L620.66 919.602l-.96-.96-.938-.996-.916-1.03-.893-1.065z"/><path id="_389292544" class="fil1" d="M877.514 1115.67 2013.39 2251.55h-222.45L655.063 1115.67z"/><path id="_389279848" class="fil1" d="m1145.81 1135.79 1135.88 1135.88-254.54 418.08L891.27 1553.87z"/><path id="_389287168" class="fil1" d="m1583.96 1024 1135.88 1135.88-.26 4.3-.48 4.29-.71 4.27-.92 4.24-1.15 4.21-1.37 4.17-1.58 4.12-1.81 4.06-2.02 3.99-2.24 3.92-2.45 3.84-2.67 3.74-2.88 3.64-3.1 3.53-3.31 3.42-3.51 3.28-3.73 3.16-3.94 3.01-4.15 2.86-4.35 2.7-4.57 2.53-4.77 2.36-4.97 2.17-5.18 1.98-5.38 1.78-5.58 1.57-5.79 1.35-5.99 1.12-6.18.89-6.39.64-6.58.4-6.79.13-1135.88-1135.88 6.78-.14 6.59-.39 6.39-.64 6.18-.89 5.99-1.12 5.79-1.35 5.58-1.57 5.38-1.78 5.18-1.98 4.97-2.17 4.77-2.36 4.56-2.53 4.36-2.7 4.15-2.86 3.94-3.01 3.72-3.16 3.52-3.29 3.31-3.41 3.1-3.53 2.88-3.64 2.67-3.75 2.45-3.83 2.24-3.92 2.02-3.99 1.8-4.06 1.59-4.12 1.37-4.17 1.14-4.21.93-4.25.71-4.27.48-4.28z"/><path id="_389311216" class="fil1" d="m1145.81 912.21 1135.88 1135.88 1.49 2.44 1.6 2.28 1.7 2.12 1.81 1.97L1152.41 921.016l-1.81-1.966-1.7-2.123-1.6-2.279z"/><path id="_389303704" class="fil1" d="m1469.16 1115.67 1135.88 1135.88h-286.65L1182.51 1115.67z"/><path id="_389299984" class="fil1" d="M1563.56 967.583 2699.44 2103.47l2.96 3.52 2.73 3.63 2.49 3.73 2.26 3.83 2.02 3.91 1.8 3.98 1.56 4.05 1.34 4.11 1.11 4.16.88 4.21.65 4.23.42 4.27.2 4.28-.02 4.29-1135.88-1135.89.02-4.29-.2-4.28-.42-4.26-.66-4.24-.87-4.2-1.11-4.159-1.34-4.111-1.56-4.051-1.8-3.985-2.03-3.909-2.25-3.824-2.5-3.734-2.72-3.632z"/><path id="_466481072" class="fil1" d="m1583.96 1023.78-.002.217c-1.569 45.834-41.402 91.668-114.795 91.668H1182.51c-16.81 0-29.047 6.703-36.697 20.123L891.27 1553.867c-9.18 13.418-21.404 20.135-36.694 20.135h-82.552c-6.115 0-10.712-2.24-13.763-6.717-3.058-4.46-3.818-9.685-2.298-15.641l137.594-413.622c3.07-5.968 3.07-11.178 0-15.654-3.045-4.475-8.396-6.702-16.043-6.702h-222.45c-16.822 0-29.807 5.96-38.981 17.88l-41.286 55.9c-15.652 20.348-120.444 35.96-110.073-4.483l41.28-138.608c2.293-7.455 3.441-14.906 3.441-22.357l-.003-.746c-.073-7.204-1.219-14.407-3.438-21.61l-41.28-138.628c-10.4-40.424 94.412-24.845 110.073-4.462l41.286 55.898c9.169 11.919 22.16 17.882 38.98 17.882h222.45c6.11 0 11.087-2.24 14.905-6.704 3.822-4.475 4.21-9.697 1.139-15.653L755.963 496.35c-1.52-5.961-.76-11.18 2.298-15.652 3.05-4.463 7.648-6.704 13.763-6.704h82.552c15.29 0 27.514 6.704 36.694 20.115l254.543 418.098c7.65 13.42 19.88 20.124 36.697 20.124h286.653c79.54 0 116.242 45.689 114.797 91.45z"/></g></g><path d="M1024-.001c565.539 0 1024 458.462 1024 1024 0 565.539-458.462 1024-1024 1024-565.539 0-1024-458.462-1024-1024 0-565.54 458.462-1024 1024-1024z" style="fill:none"/><path d="m1583.96 1024 .002-.217c1.445-45.761-35.257-91.45-114.797-91.45h-286.653c-16.816 0-29.047-6.704-36.697-20.123L891.272 494.112c-9.18-13.412-21.404-20.116-36.693-20.116h-82.552c-6.116 0-10.712 2.24-13.763 6.704-3.058 4.473-3.819 9.691-2.299 15.652L893.56 909.976c3.071 5.957 2.684 11.178-1.138 15.654-3.819 4.463-8.796 6.703-14.905 6.703h-222.45c-16.82 0-29.812-5.963-38.98-17.881L574.8 858.553c-15.662-20.383-120.473-35.962-110.073 4.463l41.28 138.627c2.219 7.203 3.364 14.407 3.438 21.61l.003.747h1074.51z" style="fill:#00e676"/><path d="M755.963 1551.65c-1.52 5.956-.76 11.18 2.298 15.641 3.051 4.477 7.648 6.717 13.764 6.717h82.552c15.29 0 27.514-6.717 36.693-20.135l254.543-418.08c7.65-13.419 19.888-20.122 36.697-20.122h286.653c73.394 0 113.226-45.833 114.795-91.667H509.448c0 7.45-1.148 14.902-3.442 22.357l-41.28 138.608c-10.37 40.442 94.422 24.83 110.074 4.482l41.285-55.9c9.175-11.919 22.16-17.88 38.981-17.88h222.45c7.648 0 12.998 2.228 16.043 6.703 3.071 4.475 3.071 9.685 0 15.653l-137.594 413.622z" style="fill:#00c853"/></g></svg>