<svg xmlns="http://www.w3.org/2000/svg" viewBox="0 0 1000 1000" xml:space="preserve"><switch><g><circle fill="#382B73" cx="500" cy="500" r="398"/><circle fill="#473080" cx="500" cy="500" r="344.3"/><path fill="#382B73" d="m748.5 689 .5-.5c.2-.2.4-.5.6-.7.1-.2.3-.3.4-.5.2-.2.4-.5.5-.7.1-.2.2-.3.4-.5.2-.3.3-.5.5-.8.1-.2.2-.3.3-.5.2-.3.3-.6.5-.9.1-.2.2-.3.3-.5.2-.3.3-.6.4-.9.1-.2.2-.3.2-.5.1-.3.3-.6.4-1 .1-.2.1-.3.2-.5.1-.3.2-.7.3-1 0-.2.1-.3.1-.5.1-.4.2-.7.3-1.1 0-.1.1-.3.1-.4.1-.4.2-.7.2-1.1 0-.1 0-.3.1-.4.1-.4.1-.8.2-1.2v-.4c0-.4.1-.8.1-1.2V671.3c0-.4 0-.9-.1-1.3v-.3c0-.4-.1-.9-.2-1.3v-.3c-.1-.4-.1-.9-.2-1.3 0-.1 0-.1-.1-.2-.1-.5-.2-.9-.3-1.4 0-.1 0-.1-.1-.2-.1-.5-.3-.9-.5-1.4v-.1l-.6-1.5v-.1c-.4-1-.9-1.9-1.5-2.8L733 628c-4.4-7.4-11.7-12.4-20-14 0-.2.1-.4.1-.6 0-1.3-.7-2.4-1.8-3.1 7.7-4.2 13-12.5 13-21.9V368c0-13.8-11.2-25-25-25H300.8c-13.8 0-25 11.2-25 25v220.4c0 9.5 5.3 17.7 13 21.9-1.1.6-1.8 1.8-1.8 3.1 0 .2 0 .4.1.6-8.3 1.6-15.6 6.7-20 14l-18.6 31.1c-.6.9-1 1.9-1.5 2.8v.1l-.6 1.5v.1c-.2.5-.3.9-.5 1.4 0 .1 0 .1-.1.2-.1.5-.2.9-.3 1.4 0 .1 0 .1-.1.2-.1.4-.2.9-.2 1.3v.3c-.1.4-.1.9-.2 1.3v.3c0 .4-.1.9-.1 1.3v1.9c0 .4.1.8.1 1.2v.4c0 .4.1.8.2 1.2 0 .1 0 .3.1.4.1.4.1.7.2 1.1 0 .1.1.3.1.4.1.4.2.7.3 1.1 0 .2.1.3.1.5.1.3.2.7.3 1 .1.2.1.3.2.5.1.3.3.6.4 1 .1.2.1.3.2.5.1.3.3.6.4.9.1.2.2.3.3.5.2.3.3.6.5.9.1.2.2.3.3.5.2.3.3.5.5.8.1.2.2.3.4.5.2.3.4.5.5.7.1.2.3.3.4.5.2.2.4.5.6.7.1.2.3.3.5.5l.6.6.5.5.6.6c.2.2.4.3.6.5.2.2.4.4.6.5.2.2.4.3.6.5.2.2.4.3.7.5.2.1.4.3.7.4.2.1.4.3.7.4.2.1.5.3.7.4.2.1.5.3.7.4.3.1.5.2.8.4.2.1.5.2.7.3.3.1.5.2.8.3.2.1.5.2.7.3l.9.3c.2.1.5.2.7.2.3.1.6.2.9.2.2.1.5.1.7.2.3.1.7.1 1 .2.2 0 .5.1.7.1.4.1.8.1 1.2.1.2 0 .4 0 .6.1.6 0 1.2.1 1.8.1h460.3c.6 0 1.2 0 1.8-.1.2 0 .4 0 .6-.1.4 0 .8-.1 1.2-.1.2 0 .5-.1.7-.1.3-.1.7-.1 1-.2.2 0 .5-.1.7-.2.3-.1.6-.1.9-.2.2-.1.5-.1.7-.2l.9-.3c.2-.1.5-.2.7-.3.3-.1.5-.2.8-.3.2-.1.5-.2.7-.3.3-.1.5-.2.8-.4.2-.1.5-.2.7-.4.2-.1.5-.3.7-.4.2-.1.5-.3.7-.4.2-.1.4-.3.7-.4.2-.2.4-.3.7-.5.2-.2.4-.3.6-.5.2-.2.4-.4.6-.5.2-.2.4-.3.6-.5l.6-.6.5-.5c-.1-.2.1-.4.3-.6z"/><g><path fill="#F06EA9" d="M699.2 593.4H300.8c-13.8 0-25-11.2-25-25V352.9c0-13.8 11.2-25 25-25h398.5c13.8 0 25 11.2 25 25v215.5c-.1 13.8-11.3 25-25.1 25z"/><path fill="#EF5A9D" d="M699.2 323H300.8c-13.8 0-25 11.2-25 25v5c0-13.8 11.2-25 25-25h398.5c13.8 0 25 11.2 25 25v-5c-.1-13.8-11.3-25-25.1-25z"/><path fill="#E6E7E8" d="M694 577.7H306c-8.3 0-15-6.7-15-15V372c0-8.3 6.7-15 15-15h388c8.3 0 15 6.7 15 15v190.7c0 8.3-6.7 15-15 15z"/><path fill="#D1D3D4" d="M694 571.7H306c-8.3 0-15-6.7-15-15v6c0 8.3 6.7 15 15 15h388c8.3 0 15-6.7 15-15v-6c0 8.3-6.7 15-15 15z"/><path fill="#EF5A9D" d="M730.1 677H269.9c-19.4 0-31.4-21.2-21.5-37.8L267 608c5.4-9.1 15.2-14.6 25.7-14.6h414.5c10.6 0 20.3 5.5 25.7 14.6l18.6 31.1c10.1 16.7-1.9 37.9-21.4 37.9z"/><path fill="#E43D91" d="M730.1 654H269.9c-10.1 0-18.1-5.7-22.2-13.5-8.6 16.4 3.3 36.5 22.2 36.5h460.3c18.9 0 30.8-20.1 22.2-36.5-4.1 7.8-12.2 13.5-22.3 13.5z"/><circle fill="#FFF" cx="500" cy="343" r="7.8"/><g fill="#A72973"><path d="M493.3 614.1v-8.7h-42.9l-1.2 8.7zM435.8 614.1l1.2-8.7h-42.7l-2.4 8.7zM378.1 614.1l2.4-8.7h-42.2l-3.6 8.7zM665.3 614.1l-3.6-8.7h-42.2l2.4 8.7zM717.8 614.1l-3.6-6.1c-1-1.6-2.7-2.6-4.7-2.6h-33.4l3.6 8.7h38.1zM550.8 614.1l-1.2-8.7h-42.9v8.7zM320.3 614.1l3.6-8.7h-33.4c-1.9 0-3.7 1-4.7 2.6l-3.6 6.1h38.1zM608.1 614.1l-2.4-8.7H563l1.2 8.7zM447.9 624.1l-2.1 14.7h47.5v-14.7zM624.7 624.1l4 14.7h46.8l-6.1-14.7zM723.8 624.1h-40l6 14.7H723c4.2 0 6.8-4.6 4.7-8.2l-3.9-6.5zM565.6 624.1l2 14.7h47.3l-4.1-14.7zM389.2 624.1l-4.1 14.7h47.3l2-14.7zM506.7 624.1v14.7h47.5l-2.1-14.7zM330.6 624.1l-6.1 14.7h46.8l4-14.7zM276.2 624.1l-3.9 6.5c-2.2 3.6.4 8.2 4.7 8.2h33.2l6-14.7h-40z"/></g><path fill="#E43D91" d="M709.4 597H290.6c-2 0-3.6-1.6-3.6-3.6s1.6-3.6 3.6-3.6h418.9c2 0 3.6 1.6 3.6 3.6-.1 2-1.7 3.6-3.7 3.6z"/><path fill="#BCBEC0" d="M386.8 467.3h-66.2c-5.3 0-9.5-4.3-9.5-9.5v-66.2c0-5.3 4.3-9.5 9.5-9.5h66.2c5.3 0 9.5 4.3 9.5 9.5v66.2c0 5.2-4.3 9.5-9.5 9.5zM386.8 565.5h-66.2c-5.3 0-9.5-4.3-9.5-9.5v-66.2c0-5.3 4.3-9.5 9.5-9.5h66.2c5.3 0 9.5 4.3 9.5 9.5V556c0 5.2-4.3 9.5-9.5 9.5z"/><path fill="#EF5A9D" d="M386.8 462.3h-66.2c-5.3 0-9.5-4.3-9.5-9.5v-66.2c0-5.3 4.3-9.5 9.5-9.5h66.2c5.3 0 9.5 4.3 9.5 9.5v66.2c0 5.2-4.3 9.5-9.5 9.5z"/><path fill="#F06EA9" d="M386.8 377h-66.2c-5.3 0-9.5 4.3-9.5 9.5v3c0-5.3 4.3-9.5 9.5-9.5h66.2c5.3 0 9.5 4.3 9.5 9.5v-3c0-5.2-4.3-9.5-9.5-9.5z"/><path fill="#E43D91" d="M386.8 455.3h-66.2c-5.3 0-9.5-4.3-9.5-9.5v7c0 5.3 4.3 9.5 9.5 9.5h66.2c5.3 0 9.5-4.3 9.5-9.5v-7c0 5.2-4.3 9.5-9.5 9.5z"/><path fill="#FEDE3A" d="M379.3 435.5v7.9c0 3.7-3 6.6-6.6 6.6h-38.1c-3.7 0-6.6-3-6.6-6.6v-7.9c0-8.9 4.5-16.7 11.3-21.3.1 0 .1-.1.2-.1 1.7-1.1 3.5-2 5.4-2.7 2.7-1 5.7-1.5 8.8-1.5s6 .5 8.8 1.5c1.9.7 3.7 1.6 5.4 2.7 1.4 1 2.8 2 4 3.3 4.5 4.6 7.4 11 7.4 18.1z"/><path fill="#FFF335" d="M371.8 417.3c-1.2-1.2-2.6-2.3-4-3.3-4.1-2.7-8.9-4.3-14.2-4.3-5.2 0-10.1 1.6-14.2 4.3-6.9 4.6-11.5 12.5-11.5 21.4v3.8c0-8.9 4.6-16.8 11.5-21.4 4.1-2.7 8.9-4.3 14.2-4.3 5.2 0 10.1 1.6 14.2 4.3 1.4 1 2.8 2 4 3.3 4.6 4.6 7.5 11.1 7.5 18.1v-3.8c0-7-2.9-13.4-7.5-18.1z"/><path fill="#E6E7E8" d="M353.6 409.8v25.5l-2.9-7.9-5.9-16.1c2.8-.9 5.8-1.5 8.8-1.5z"/><path fill="#E6E7E8" d="m362.4 411.4-5.9 16.1-2.9 7.9v-25.5c3.1-.1 6.1.5 8.8 1.5z"/><path fill="#FFF" d="m353.1 413.6-5.4 5.5-2.8-7.7 1-2.7h7.7v4.9z"/><path fill="#FFF" d="m354.2 413.6 5.4 5.5 2.8-7.7-1-2.7h-7.8v4.9z"/><path fill="#1CAEE4" d="m356.5 427.5-2.9 7.8-2.8-7.8 1.5-11h2.7z"/><g fill="#009ADD"><path d="M352.7 416.5h-.4l-1.5 11 2.8 7.8-1.9-7.8zM355 416.5h-.5l1.1 11-2 7.8 2.9-7.8z"/></g><path fill="#1CAEE4" d="m356.6 416.9-2.5 2.5c-.3.3-.7.3-.9 0l-2.5-2.5c-.3-.3-.3-.7 0-.9l2.5-2.5c.3-.3.7-.3.9 0l2.5 2.5c.2.2.2.7 0 .9z"/><path fill="#27C1E6" d="m350.7 416.5 2.5-2.5c.3-.3.7-.3.9 0l2.5 2.5c.1.1.1.1.1.2.1-.2 0-.5-.1-.7l-2.5-2.5c-.3-.3-.7-.3-.9 0l-2.5 2.5c-.2.2-.2.5-.1.7 0-.1.1-.2.1-.2z"/><path fill="#009ADD" d="m356.4 415.8-2.3 2.3c-.3.3-.7.3-.9 0l-2.3-2.3-.2.2c-.3.3-.3.7 0 .9l2.5 2.5c.3.3.7.3.9 0l2.5-2.5c.3-.3.3-.7 0-.9l-.2-.2z"/><path fill="#E43D91" d="M372.7 445.6h-38.1c-3.7 0-6.6-3-6.6-6.6v4.4c0 3.7 3 6.6 6.6 6.6h38.1c3.7 0 6.6-3 6.6-6.6V439c0 3.6-3 6.6-6.6 6.6z"/><ellipse fill="#E6E7E8" cx="340.3" cy="399" rx="2.5" ry="3.7"/><ellipse fill="#E6E7E8" cx="367" cy="399" rx="2.5" ry="3.7"/><path fill="#FFF" d="M367 398.7c0 8.2-6 14.9-13.3 14.9-7.4 0-13.3-6.7-13.3-14.9 0-.8.1-1.5.2-2.2.7-5.1 3.7-9.4 7.8-11.4 1.3-.7 2.8-1.1 4.3-1.2h1c6.3 0 11.6 4.9 13 11.5.1 1.1.3 2.2.3 3.3z"/><path fill="#D1D3D4" d="M353.6 411.4c-7 0-12.8-6.1-13.3-13.8v1.1c0 8.2 6 14.9 13.3 14.9 7.4 0 13.3-6.7 13.3-14.9v-1.1c-.5 7.8-6.2 13.8-13.3 13.8z"/><g fill="#F7CB15"><path d="M339.6 431c-.8 0-1.5.7-1.5 1.5v13.2h3v-13.2c0-.9-.6-1.5-1.5-1.5zM367.7 431c-.8 0-1.5.7-1.5 1.5v13.2h3v-13.2c0-.9-.7-1.5-1.5-1.5z"/></g><path fill="#1CAEE4" d="M366.6 395.4c-1.6.8-3.5 1.2-5.4 1.2-4.5 0-8.4-2.3-10.8-5.7-1.1-1.7-1.9-3.6-2.1-5.7l1.5-.6c.6-.2 1.1-.3 1.7-.4.4-.1.8-.1 1.1-.1h1c.6 0 1.1 0 1.7.1 3.3.5 6.2 2.3 8.3 4.9.4.5.8 1.1 1.2 1.7.3.4.5.9.7 1.4.2.5.5 1.1.7 1.7.1.3.3.9.4 1.5z"/><path fill="#1CAEE4" d="M352.7 383.9c-.1 2.6-.9 4.9-2.2 6.9-2.2 3.2-5.8 5.4-9.9 5.7.1-.7.2-1.4.4-2 .2-.7.4-1.3.7-2 .4-.9.8-1.7 1.3-2.5 1.2-1.8 2.8-3.4 4.6-4.4.3-.2.6-.3.9-.5l1.5-.6c.6-.2 1.2-.4 1.8-.5.2 0 .5-.1.9-.1z"/><path fill="#009ADD" d="M366.1 393.6c-1 .3-2.1.4-3.2.4-4.6 0-8.9-2.3-11.5-6.1-.7-1-1.3-2.2-1.6-3.4.6-.2 1.1-.3 1.7-.4.3 1 .8 1.9 1.4 2.8 2.3 3.3 6 5.4 10 5.4.9 0 1.7-.1 2.5-.3.3.5.6 1.1.7 1.6z"/><path fill="#009ADD" d="M364.8 390.6h-.7c-4.2 0-8.2-2.3-10.5-6.2-.1-.2-.2-.3-.3-.5h.4c.6 0 1.1 0 1.7.1 2 3 5 4.8 8.3 4.9.3.5.7 1.1 1.1 1.7zM351.6 384c-.3 1.9-1.1 3.7-2.4 5.3-2 2.6-5 4.3-8.4 5.1.2-.7.4-1.3.7-2 2.6-.8 4.8-2.2 6.3-4.2.9-1.2 1.5-2.4 1.9-3.8.7-.1 1.3-.2 1.9-.4zM347.4 385.6c-.1.2-.3.4-.4.6-1.1 1.6-2.5 2.8-4.1 3.8 1.2-1.8 2.7-3.3 4.5-4.4z"/><path fill="#FEDE3A" d="M386.8 560.5h-66.2c-5.3 0-9.5-4.3-9.5-9.5v-66.2c0-5.3 4.3-9.5 9.5-9.5h66.2c5.3 0 9.5 4.3 9.5 9.5V551c0 5.2-4.3 9.5-9.5 9.5z"/><path fill="#FFF335" d="M386.8 475.2h-66.2c-5.3 0-9.5 4.3-9.5 9.5v3c0-5.3 4.3-9.5 9.5-9.5h66.2c5.3 0 9.5 4.3 9.5 9.5v-3c0-5.2-4.3-9.5-9.5-9.5z"/><path fill="#F7CB15" d="M386.8 553.5h-66.2c-5.3 0-9.5-4.3-9.5-9.5v7c0 5.3 4.3 9.5 9.5 9.5h66.2c5.3 0 9.5-4.3 9.5-9.5v-7c0 5.2-4.3 9.5-9.5 9.5z"/><g><path fill="#EF5A9D" d="M379.3 533.7v7.9c0 3.7-3 6.6-6.6 6.6h-38.1c-3.7 0-6.6-3-6.6-6.6v-7.9c0-8.9 4.5-16.7 11.3-21.3.1 0 .1-.1.2-.1 1.7-1.1 3.5-2 5.4-2.7 2.7-1 5.7-1.5 8.8-1.5s6 .5 8.8 1.5c1.9.7 3.7 1.6 5.4 2.7 1.4 1 2.8 2 4 3.3 4.5 4.6 7.4 11 7.4 18.1z"/><path fill="#F06EA9" d="M371.8 515.6c-1.2-1.2-2.6-2.3-4-3.3-4.1-2.7-8.9-4.3-14.2-4.3-5.2 0-10.1 1.6-14.2 4.3-6.9 4.6-11.5 12.5-11.5 21.4v3.8c0-8.9 4.6-16.8 11.5-21.4 4.1-2.7 8.9-4.3 14.2-4.3 5.2 0 10.1 1.6 14.2 4.3 1.4 1 2.8 2 4 3.3 4.6 4.6 7.5 11.1 7.5 18.1v-3.8c0-7.1-2.9-13.5-7.5-18.1z"/><path fill="#E6E7E8" d="M353.6 508v25.5l-2.9-7.9-5.9-16.1c2.8-.9 5.8-1.5 8.8-1.5z"/><path fill="#E6E7E8" d="m362.4 509.6-5.9 16.1-2.9 7.9V508c3.1 0 6.1.6 8.8 1.6z"/><path fill="#FFF" d="m353.1 511.8-5.4 5.5-2.8-7.7 1-2.7h7.7v4.9z"/><path fill="#FFF" d="m354.2 511.8 5.4 5.5 2.8-7.7-1-2.7h-7.8v4.9z"/><path fill="#1CAEE4" d="m356.5 525.7-2.9 7.9-2.8-7.9 1.5-11h2.7z"/><g fill="#009ADD"><path d="M352.7 514.7h-.4l-1.5 11 2.8 7.9-1.9-7.9zM355 514.7h-.5l1.1 11-2 7.9 2.9-7.9z"/></g><path fill="#1CAEE4" d="m356.6 515.1-2.5 2.5c-.3.3-.7.3-.9 0l-2.5-2.5c-.3-.3-.3-.7 0-.9l2.5-2.5c.3-.3.7-.3.9 0l2.5 2.5c.2.2.2.7 0 .9z"/><path fill="#27C1E6" d="m350.7 514.7 2.5-2.5c.3-.3.7-.3.9 0l2.5 2.5c.1.1.1.1.1.2.1-.2 0-.5-.1-.7l-2.5-2.5c-.3-.3-.7-.3-.9 0l-2.5 2.5c-.2.2-.2.5-.1.7 0-.1.1-.1.1-.2z"/><path fill="#009ADD" d="m356.4 514-2.3 2.3c-.3.3-.7.3-.9 0l-2.3-2.3-.2.2c-.3.3-.3.7 0 .9l2.5 2.5c.3.3.7.3.9 0l2.5-2.5c.3-.3.3-.7 0-.9l-.2-.2z"/><path fill="#E7AD27" d="M372.7 543.8h-38.1c-3.7 0-6.6-3-6.6-6.6v4.4c0 3.7 3 6.6 6.6 6.6h38.1c3.7 0 6.6-3 6.6-6.6v-4.4c0 3.6-3 6.6-6.6 6.6z"/><ellipse fill="#E6E7E8" cx="340.3" cy="497.2" rx="2.5" ry="3.7"/><ellipse fill="#E6E7E8" cx="367" cy="497.2" rx="2.5" ry="3.7"/><path fill="#FFF" d="M367 496.9c0 8.2-6 14.9-13.3 14.9-7.4 0-13.3-6.7-13.3-14.9 0-.8.1-1.5.2-2.2.7-5.1 3.7-9.4 7.8-11.4 1.3-.7 2.8-1.1 4.3-1.2h1c6.3 0 11.6 4.9 13 11.5.1 1.1.3 2.2.3 3.3z"/><path fill="#D1D3D4" d="M353.6 509.6c-7 0-12.8-6.1-13.3-13.8v1.1c0 8.2 6 14.9 13.3 14.9 7.4 0 13.3-6.7 13.3-14.9v-1.1c-.5 7.8-6.2 13.8-13.3 13.8z"/><g fill="#E43D91"><path d="M339.6 529.2c-.8 0-1.5.7-1.5 1.5v13.2h3v-13.2c0-.9-.6-1.5-1.5-1.5zM367.7 529.2c-.8 0-1.5.7-1.5 1.5v13.2h3v-13.2c0-.9-.7-1.5-1.5-1.5z"/></g><path fill="#1CAEE4" d="M366.6 493.6c-1.6.8-3.5 1.2-5.4 1.2-4.5 0-8.4-2.3-10.8-5.7-1.1-1.7-1.9-3.6-2.1-5.7l1.5-.6c.6-.2 1.1-.3 1.7-.4.4-.1.8-.1 1.1-.1h1c.6 0 1.1 0 1.7.1 3.3.5 6.2 2.3 8.3 4.9.4.5.8 1.1 1.2 1.7.3.4.5.9.7 1.4.2.5.5 1.1.7 1.7.1.3.3.9.4 1.5z"/><path fill="#1CAEE4" d="M352.7 482.1c-.1 2.6-.9 4.9-2.2 6.9-2.2 3.2-5.8 5.4-9.9 5.7.1-.7.2-1.4.4-2 .2-.7.4-1.3.7-2 .4-.9.8-1.7 1.3-2.5 1.2-1.8 2.8-3.4 4.6-4.4.3-.2.6-.3.9-.5l1.5-.6c.6-.2 1.2-.4 1.8-.5.2 0 .5 0 .9-.1z"/><path fill="#009ADD" d="M366.1 491.8c-1 .3-2.1.4-3.2.4-4.6 0-8.9-2.3-11.5-6.1-.7-1-1.3-2.2-1.6-3.4.6-.2 1.1-.3 1.7-.4.3 1 .8 1.9 1.4 2.8 2.3 3.3 6 5.4 10 5.4.9 0 1.7-.1 2.5-.3.3.5.6 1.1.7 1.6z"/><path fill="#009ADD" d="M364.8 488.8h-.7c-4.2 0-8.2-2.3-10.5-6.2-.1-.2-.2-.3-.3-.5h.4c.6 0 1.1 0 1.7.1 2 3 5 4.8 8.3 4.9.3.5.7 1.1 1.1 1.7zM351.6 482.3c-.3 1.9-1.1 3.7-2.4 5.3-2 2.6-5 4.3-8.4 5.1.2-.7.4-1.3.7-2 2.6-.8 4.8-2.2 6.3-4.2.9-1.2 1.5-2.4 1.9-3.8.7-.2 1.3-.3 1.9-.4zM347.4 483.8c-.1.2-.3.4-.4.6-1.1 1.6-2.5 2.8-4.1 3.8 1.2-1.8 2.7-3.3 4.5-4.4z"/></g><path fill="#E43D91" d="M576.6 577.7h-52.7c-.4 0-.8.4-.6.9l5.8 14.9h42.3l5.8-14.9c.2-.5-.1-.9-.6-.9z"/><path fill="#D1D3D4" d="M656.5 387H444c-13.8 0-25 11.2-25 25v115.7c0 3.5.7 6.7 2 9.7.5 1.1 1 2.2 1.7 3.2 4.4 7.2 12.3 12 21.4 12h69.2l2.6 6.7 7.1 18.3h54.6l7.1-18.3 2.6-6.7h69.2c6.9 0 13.2-2.8 17.7-7.3s7.3-10.8 7.3-17.7V412c0-13.8-11.1-25-25-25z"/><g><path fill="#1CAEE4" d="M656.6 542.7H444c-13.8 0-25-11.2-25-25V402c0-13.8 11.2-25 25-25h212.6c13.8 0 25 11.2 25 25v115.7c0 13.8-11.2 25-25 25z"/><path fill="#27C1E6" d="M656.5 377H444c-13.8 0-25 11.2-25 25v5.5c0-13.8 11.2-25 25-25h212.5c13.8 0 25 11.2 25 25V402c0-13.8-11.1-25-25-25z"/><path fill="#009ADD" d="M656.5 530.7H444c-13.8 0-25-11.2-25-25v12c0 13.8 11.2 25 25 25h212.5c13.8 0 25-11.2 25-25v-12c0 13.8-11.1 25-25 25z"/><path fill="#1CAEE4" d="m592 530.7-36.5 93.5c-1.8 4.7-8.5 4.7-10.4 0l-36.5-93.5H592z"/><path fill="#009ADD" d="M552.5 603.9c-.8 2-3.6 2-4.4 0l-28.6-73.1h-11l36.5 93.5c1.8 4.7 8.5 4.7 10.4 0l36.5-93.5h-11l-28.4 73.1z"/></g><path fill="#009ADD" d="M625 464.5c0-5.1-4.1-9.2-9.2-9.2H611c5.1 0 9.2-4.1 9.2-9.2s-4.1-9.2-9.2-9.2h-35.2l5.5-24c1.1-4.9-1.8-10.5-6.5-12.1-5-1.6-10.2.8-12.3 5.3l-7.2 15.3c-5.1 10.8-12.9 20.1-22.7 26.9v-11.4c0-1.6-.6-3-1.7-4-1-1-2.4-1.7-4-1.7h-45.6c-2.3 0-4.4 1.4-5.2 3.5-.1.3-.3.7-.3 1.1-.1.4-.1.8-.1 1.1V512c0 3.1 2.5 5.7 5.7 5.7H527c2.3 0 4.3-1.4 5.2-3.4.3-.7.5-1.4.5-2.2V499.4c5.3 3.7 11.1 6.5 17.2 8.4.8.2 1.5.5 2.3.7 5.4 1.5 11 2.2 16.6 2.2h37.6c5.1 0 9.2-4.1 9.2-9.2s-4.1-9.2-9.2-9.2h4.7c5.1 0 9.2-4.1 9.2-9.2s-4.1-9.2-9.2-9.2h4.7c5.1-.1 9.2-4.3 9.2-9.4z"/><g><g fill="#E6E7E8"><path d="M611 445.3h-36.5c-5.1 0-9.2-4.1-9.2-9.2s4.1-9.2 9.2-9.2H611c5.1 0 9.2 4.1 9.2 9.2.1 5.1-4.1 9.2-9.2 9.2zM615.8 463.8h-36.5c-5.1 0-9.2-4.1-9.2-9.2s4.1-9.2 9.2-9.2h36.5c5.1 0 9.2 4.1 9.2 9.2 0 5-4.1 9.2-9.2 9.2zM611 482.2h-36.5c-5.1 0-9.2-4.1-9.2-9.2s4.1-9.2 9.2-9.2H611c5.1 0 9.2 4.1 9.2 9.2.1 5.1-4.1 9.2-9.2 9.2zM606.3 500.7h-36.5c-5.1 0-9.2-4.1-9.2-9.2s4.1-9.2 9.2-9.2h36.5c5.1 0 9.2 4.1 9.2 9.2.1 5-4.1 9.2-9.2 9.2z"/></g><path fill="#E6E7E8" d="M526.8 507.7h-45.6c-3.1 0-5.7-2.5-5.7-5.7v-75.1c0-3.1 2.5-5.7 5.7-5.7h45.6c3.1 0 5.7 2.5 5.7 5.7V502c0 3.1-2.5 5.7-5.7 5.7z"/><path fill="#FFF" d="M526.8 421.2h-45.6c-3.1 0-5.7 2.5-5.7 5.7v5.7c0-3.1 2.5-5.7 5.7-5.7h45.6c3.1 0 5.7 2.5 5.7 5.7v-5.7c0-3.2-2.5-5.7-5.7-5.7z"/><path fill="#D1D3D4" d="M526.8 495.3h-45.6c-3.1 0-5.7-2.5-5.7-5.7V502c0 3.1 2.5 5.7 5.7 5.7h45.6c3.1 0 5.7-2.5 5.7-5.7v-12.4c0 3.2-2.5 5.7-5.7 5.7z"/><path fill="#FFF" d="m575.8 426.9 5.5-24c1.1-4.9-1.8-10.5-6.5-12.1-5-1.6-10.2.8-12.3 5.3l-7.2 15.3c-5.1 10.8-12.9 20.1-22.7 26.9v51.2c10.6 7.4 23.2 11.3 36.2 11.3h25.4V427h-18.4z"/><path fill="#E6E7E8" d="M532.5 480v9.4c10.6 7.4 23.2 11.3 36.2 11.3h25.4v-9.4h-25.4c-13 0-25.6-4-36.2-11.3z"/></g></g></g></switch></svg>