<svg xmlns="http://www.w3.org/2000/svg" width="512" height="512" xml:space="preserve"><path fill="#CCD1D9" d="M192.719 0c-5.875 0-10.656 4.781-10.656 10.656V64h21.312V10.656c0-5.875-4.75-10.656-10.656-10.656z"/><path fill="#434A54" d="M160.719 480v21.344c0 5.875 4.781 10.656 10.656 10.656h42.688c5.875 0 10.656-4.781 10.656-10.656V480h-64z"/><path fill="#CCD1D9" d="m298.938 474-74.219-111.344v128h65.406c5.875 0 10.656-4.766 10.656-10.656 0-2.219-.687-4.281-1.843-6zM84.625 480c0 5.891 4.781 10.656 10.688 10.656h65.406v-128L86.469 474a10.715 10.715 0 0 0-1.844 6z"/><g fill="#656D78"><path d="m424.469 407.984-15.063-15.078-85.781 85.782 15.094 15.078z"/><path d="m409.406 493.766 15.063-15.078-85.781-85.782-15.063 15.078z"/><path d="m424.469 314.312-15.063-15.078-85.781 85.782 15.094 15.078z"/><path d="m409.406 400.094 15.063-15.078-85.781-85.782-15.063 15.078z"/><path d="m424.469 220.656-15.063-15.094-85.781 85.782 15.094 15.094z"/><path d="m409.406 306.438 15.063-15.094-85.781-85.782-15.063 15.094z"/><g><path d="m424.469 126.984-15.063-15.078-85.781 85.782 15.094 15.078z"/><path d="m409.406 212.766 15.063-15.078-85.781-85.782-15.063 15.078z"/></g><g><path d="m424.469 33.312-15.063-15.078-85.781 85.782 15.094 15.078z"/><path d="m409.406 119.094 15.063-15.078-85.781-85.782-15.063 15.078z"/></g></g><path fill="#E6E9ED" d="M224.719 121.906V85.344c0-17.688-14.312-32-32-32-17.656 0-32 14.312-32 32v36.562l-21.344 77.203v291.547h106.688V199.109l-21.344-77.203z"/><path fill="#434A54" d="M203.375 309.344c0 5.875-4.75 10.656-10.656 10.656-5.875 0-10.656-4.781-10.656-10.656 0-5.906 4.781-10.688 10.656-10.688 5.906 0 10.656 4.782 10.656 10.688zM203.375 352c0 5.891-4.75 10.656-10.656 10.656-5.875 0-10.656-4.766-10.656-10.656s4.781-10.656 10.656-10.656A10.639 10.639 0 0 1 203.375 352zM203.375 266.656c0 5.906-4.75 10.688-10.656 10.688-5.875 0-10.656-4.781-10.656-10.688 0-5.875 4.781-10.656 10.656-10.656 5.906 0 10.656 4.781 10.656 10.656zM416.719 0h-192c-5.906 0-10.656 4.781-10.656 10.656 0 5.906 4.75 10.688 10.656 10.688h96V512h106.656V10.656C427.375 4.781 422.594 0 416.719 0zm-10.657 490.656h-64V21.344h64v469.312z"/><path fill="#F5F7FA" d="M139.375 199.109v14.235h106.687v-14.235L244.094 192h-102.75zM229.344 138.656l-4.625-16.75v-4.562h-64v4.562l-4.625 16.75z"/><path fill="#CCD1D9" d="M192.719 394.656c-5.875 0-10.656 4.781-10.656 10.688V480c0 5.891 4.781 10.656 10.656 10.656A10.64 10.64 0 0 0 203.375 480v-74.656c0-5.906-4.75-10.688-10.656-10.688z"/></svg>