<svg xmlns="http://www.w3.org/2000/svg" xml:space="preserve" width="655.359" height="655.359" style="shape-rendering:geometricPrecision;text-rendering:geometricPrecision;image-rendering:optimizeQuality;fill-rule:evenodd;clip-rule:evenodd" viewBox="0 0 6.827 6.827"><defs><clipPath id="id0"><path d="M3.413 0a3.413 3.413 0 1 1 0 6.827 3.413 3.413 0 0 1 0-6.827z"/></clipPath><style>.fil1{fill:#0a497a}.fil3{fill:#c9c9c9;fill-rule:nonzero}</style></defs><g id="Layer_x0020_1"><path d="M3.413 0a3.413 3.413 0 1 1 0 6.827 3.413 3.413 0 0 1 0-6.827z" style="fill:#01579b"/><g style="clip-path:url(#id0)"><g id="_328323240"><path id="_3305355201" class="fil1" d="m4.23 2.17 3.787 3.785H7.71L3.924 2.17z"/><path id="_330536288" class="fil1" d="m5.266 3.416 3.787 3.786.013.047L5.28 3.462z"/><path id="_330536120" class="fil1" d="M5.28 3.462 9.066 7.25v.04L5.28 3.501z"/><path id="_330536864" class="fil1" d="m5.28 3.502 3.786 3.786v.09L5.28 3.59z"/><path id="_330537320" class="fil1" d="m2.903 1.902 3.786 3.786v.267L2.903 2.17z"/><path id="_330537008" class="fil1" d="m2.903 2.17 3.786 3.785h-.306L2.596 2.17z"/><path id="_330537296" class="fil1" d="m2.596 2.17 3.787 3.785-.77 1.333-3.786-3.786z"/><path id="_330537080" class="fil1" d="M3.414 4.562 7.2 8.35l-.19.318-3.787-3.786z"/><path id="_330536672" class="fil1" d="M3.685 4.924 7.47 8.711h-.05L3.635 4.924z"/><path id="_330537032" class="fil1" d="m5.191 4.924 3.786 3.787H7.471L3.685 4.924z"/><path id="_330536912" class="fil1" d="m3.223 4.881 3.786 3.786-.026.044-3.786-3.787z"/><path id="_330536936" class="fil1" d="m3.197 4.924 3.786 3.787h-.05L3.147 4.924z"/><path id="_330537536" class="fil1" d="m3.147 4.924 3.786 3.787H5.422L1.636 4.924z"/><path id="_330537968" class="fil1" d="m1.636 4.924 3.786 3.787h-.09L1.548 4.924z"/><path id="_330538088" class="fil1" d="m5.28 3.591 3.786 3.786v1.245L5.28 4.836z"/><path id="_330537848" class="fil1" d="m5.28 4.836 3.786 3.786v.089L5.28 4.924z"/><path id="_330537704" class="fil1" d="m5.28 4.924 3.786 3.787h-.089L5.191 4.924z"/><path id="_330537656" class="fil1" d="M4.355 1.945 8.14 5.73l.912 1.471-3.787-3.786z"/><path id="_330537992" class="fil1" d="m4.329 1.902 3.786 3.786.026.043-3.786-3.786z"/><path id="_328323144" class="fil1" d="m4.355 1.945.911 1.471.014.046V4.924H3.635l-.026-.042-.195-.32-.191.319-.026.043H1.546V3.502h.001v-.04l.013-.046.912-1.471.026-.043H2.903v.267h-.307l-.77 1.333H5L4.23 2.17h-.306v-.267H4.329z"/></g></g><path d="M3.413 0a3.413 3.413 0 1 1 0 6.827 3.413 3.413 0 0 1 0-6.827z" style="fill:none"/><path class="fil3" d="M5.103 3.591v.089L4.23 2.17h-.306v-.268H4.329l.026.043.911 1.471.014.046v.13zM1.724 3.591v.089l.872-1.51h.307v-.268H2.498l-.026.043-.912 1.471-.013.046v.13z"/><path style="fill:#e2e2e2" d="M1.636 3.502H5.28V4.924H3.635l-.026-.042-.195-.32-.191.319-.026.043H1.546V3.502z"/><path style="fill:#cbcbcb" d="M3.413 3.744h1.69v.939H3.83l-.028-.044-.39-.624-.39.624-.027.044H1.724v-.939h1.52z"/><path style="fill:#ce504d" d="M4.924 3.909h-1.44l.38.61h1.06z"/><path style="fill:#e56161" d="M4.054 3.909h-.288l.61.61h.287z"/><path style="fill:#4e96cc" d="M3.343 3.909h-1.44v.61h1.06z"/><path style="fill:#5ab0e5" d="M2.555 3.909h.287l-.61.61h-.287z"/></g></svg>