<svg version="1.1" id="Layer_1" xmlns="http://www.w3.org/2000/svg" x="0" y="0" viewBox="0 0 256 256" style="enable-background:new 0 0 256 256" xml:space="preserve"><style>.st2{fill:#f9a7a7}.st3{fill:#a4c9ff}.st4{fill:#3762cc}</style><path d="M126.121 89.635 14.193 153.493c-2.69 1.535-2.69 5.414 0 6.949l111.928 63.859a3.999 3.999 0 0 0 3.964 0l111.928-63.859c2.69-1.535 2.69-5.414 0-6.949L130.085 89.635a3.999 3.999 0 0 0-3.964 0z" style="fill:#6bdddd"/><path class="st4" d="M128.103 226.823a6.002 6.002 0 0 1-2.973-.785L13.202 162.179c-1.895-1.081-3.026-3.029-3.026-5.211s1.131-4.13 3.027-5.211l111.927-63.86a6.028 6.028 0 0 1 5.946 0l111.929 63.859c1.895 1.081 3.026 3.029 3.026 5.211s-1.131 4.13-3.027 5.211l-111.928 63.859a5.98 5.98 0 0 1-2.973.786zm-.991-135.451L15.184 155.231c-.911.519-1.009 1.388-1.009 1.737s.098 1.218 1.008 1.737l111.929 63.859c.611.349 1.37.349 1.982 0l111.928-63.859c.911-.519 1.009-1.388 1.009-1.737s-.098-1.218-1.008-1.737L129.094 91.372a2.007 2.007 0 0 0-1.982 0z"/><path d="M185.828 166.472 128 133.479l-57.828 32.993c.296.508.723.939 1.25 1.241l53.207 30.357a6.8 6.8 0 0 0 6.744 0l53.207-30.357a3.4 3.4 0 0 0 1.248-1.241z" style="fill:#4671c6"/><path d="M185.829 102.551a3.407 3.407 0 0 0-1.254-1.243L131.469 71.01a7 7 0 0 0-3.469-.92v63.389l57.828 32.993c.298-.511.463-1.1.463-1.712v-60.495c0-.613-.165-1.202-.462-1.714z" style="fill:#e0ebfc"/><path class="st3" d="M185.829 102.551a3.407 3.407 0 0 0-1.254-1.243L131.469 71.01a7 7 0 0 0-3.469-.92v63.389l57.828 32.993c.298-.511.463-1.1.463-1.712v-60.495c0-.613-.165-1.202-.462-1.714zM70.171 102.551a3.407 3.407 0 0 1 1.254-1.243l53.105-30.299a7 7 0 0 1 3.469-.92v63.389l-57.828 32.993a3.397 3.397 0 0 1-.463-1.712v-60.495a3.414 3.414 0 0 1 .463-1.713z"/><path class="st4" d="M185.826 168.473c-.336 0-.676-.085-.989-.263l-57.828-32.993A2 2 0 0 1 126 133.48V70.09a2 2 0 0 1 2-2 9.01 9.01 0 0 1 4.459 1.183l53.106 30.298a5.409 5.409 0 0 1 1.991 1.974v.001c.48.825.734 1.765.734 2.719v60.495c0 .953-.254 1.893-.734 2.718a1.998 1.998 0 0 1-1.73.995zM130 132.318l54.291 30.975v-59.028a1.41 1.41 0 0 0-.708-1.22l-53.105-30.298a5.204 5.204 0 0 0-.478-.24v59.811z"/><path class="st4" d="M70.174 168.473a1.997 1.997 0 0 1-1.73-.995 5.412 5.412 0 0 1-.734-2.718v-60.495c0-.954.254-1.895.734-2.719v-.001a5.424 5.424 0 0 1 1.991-1.974l53.105-30.298A9.017 9.017 0 0 1 128 68.09a2 2 0 0 1 2 2v63.39a2 2 0 0 1-1.009 1.737L71.163 168.21a1.992 1.992 0 0 1-.989.263zm1.726-64.916a1.408 1.408 0 0 0-.191.708v59.028L126 132.318V72.507a4.85 4.85 0 0 0-.478.24l-53.105 30.298a1.403 1.403 0 0 0-.517.512z"/><path class="st4" d="M128 200.963a8.815 8.815 0 0 1-4.361-1.156L70.43 169.451a5.409 5.409 0 0 1-2.721-4.691v-60.495c0-.954.254-1.895.734-2.719a1.998 1.998 0 0 1 2.72-.731l57.829 32.993a2 2 0 0 1 1.009 1.737v63.419a2.001 2.001 0 0 1-2.001 1.999zm-56.291-95.232v59.029a1.413 1.413 0 0 0 .707 1.219l53.204 30.354c.124.071.251.136.38.195v-59.821l-54.291-30.976z"/><path class="st4" d="M128 200.963a2 2 0 0 1-2-2v-63.419a2 2 0 0 1 1.009-1.737l57.829-32.993a2 2 0 0 1 2.72.731c.48.825.734 1.765.734 2.719v60.495a5.407 5.407 0 0 1-2.717 4.689l-53.21 30.358a8.832 8.832 0 0 1-4.365 1.157zm2-64.257v59.821c.13-.059.257-.125.382-.195l53.206-30.356a1.396 1.396 0 0 0 .703-1.217V105.73L130 136.706z"/><path class="st2" d="m139.937 46.362-8.404-13.103c-1.42-2.606-5.218-2.88-6.9-.259l-8.569 13.361a4 4 0 0 0 6.735 4.319l1.236-1.928v53.423a4 4 0 0 0 8 0V48.86c1.094 1.705 1.965 3.662 4.539 3.662 3.135 0 5.075-3.489 3.363-6.16zM199.984 188.42a4.001 4.001 0 0 1-.217-7.994l2.292-.126-40.996-23.39a4.002 4.002 0 0 1-1.492-5.457 4.002 4.002 0 0 1 5.457-1.492l40.589 23.157-.681-1.255c-2.54-4.685 4.531-8.426 7.032-3.814a90741.821 90741.821 0 0 1 7.376 13.599l.007.013c.525.982.575 1.964.332 2.936a4 4 0 0 1-.867 1.604l-.001.001c.187 0-1.381 1.221-2.004 1.221-.495.165-16.084.962-16.605.99a3.27 3.27 0 0 1-.222.007zM55.792 188.467c-16.964-.934-17.124-.554-18.591-2.191-.239-.119-.896-1.201-1.005-2.266 0 0-.179-1.116.451-2.295l.003-.007.003-.006.001-.001 7.375-13.598a4 4 0 0 1 7.032 3.814l-.681 1.256 40.589-23.157a4 4 0 1 1 3.965 6.949L53.94 180.353l2.292.126a4 4 0 1 1-.44 7.988z"/></svg>